<svg width="428" height="141" viewBox="0 0 428 141" fill="none" xmlns="http://www.w3.org/2000/svg">
<line y1="17.9782" x2="427.786" y2="17.9782" stroke="#585757"/>
<line x1="14.576" y1="139.744" x2="14.576" y2="17.9783" stroke="#585757"/>
<line x1="50.7168" y1="139.744" x2="50.7168" y2="17.9783" stroke="#585757"/>
<line x1="86.8575" y1="139.744" x2="86.8575" y2="17.9783" stroke="#585757"/>
<line x1="122.998" y1="139.744" x2="122.998" y2="17.9783" stroke="#585757"/>
<line x1="159.139" y1="139.744" x2="159.139" y2="17.9783" stroke="#585757"/>
<line x1="195.28" y1="139.744" x2="195.28" y2="17.9783" stroke="#585757"/>
<line x1="231.421" y1="139.744" x2="231.421" y2="17.9783" stroke="#585757"/>
<line x1="267.561" y1="139.744" x2="267.561" y2="17.9783" stroke="#585757"/>
<line x1="303.702" y1="139.744" x2="303.702" y2="17.9783" stroke="#585757"/>
<line x1="339.843" y1="139.744" x2="339.843" y2="17.9783" stroke="#585757"/>
<line x1="375.983" y1="139.744" x2="375.983" y2="17.9783" stroke="#585757"/>
<line x1="412.124" y1="139.744" x2="412.124" y2="17.9783" stroke="#585757"/>
<line y1="42.103" x2="427.786" y2="42.103" stroke="#585757"/>
<line y1="66.103" x2="427.786" y2="66.103" stroke="#585757"/>
<line y1="90.103" x2="427.786" y2="90.103" stroke="#585757"/>
<line y1="114.103" x2="427.786" y2="114.103" stroke="#585757"/>
<line y1="139.744" x2="427.786" y2="139.744" stroke="#585757"/>
<path d="M87.7592 139.744L114.065 56.6671C118.817 41.6604 137.075 35.9919 149.491 45.6688V45.6688C155.859 50.6324 164.392 51.82 171.874 48.7838L177.994 46.3C188.987 41.8388 201.51 43.4255 211.043 50.4875L231.605 65.7196L267.918 93.0162L303.629 116.149L340.343 139.744" stroke="#0071CE" stroke-width="2"/>
</svg>
