<svg width="1024" height="591" viewBox="0 0 1024 591" fill="none" xmlns="http://www.w3.org/2000/svg">
<g clip-path="url(#clip0_378_53462)">
<line x1="96.5" y1="629.5" x2="96.5" y2="-84.5" stroke="#585757"/>
<line x1="236.5" y1="629.5" x2="236.5" y2="-84.5" stroke="#585757"/>
<line x1="376.5" y1="629.5" x2="376.5" y2="-84.5" stroke="#585757"/>
<line x1="516.5" y1="629.5" x2="516.5" y2="-84.5" stroke="#585757"/>
<line x1="656.5" y1="629.5" x2="656.5" y2="-84.5" stroke="#585757"/>
<line x1="796.5" y1="629.5" x2="796.5" y2="-84.5" stroke="#585757"/>
<line x1="936.5" y1="629.5" x2="936.5" y2="-84.5" stroke="#585757"/>
</g>
<line x1="30" y1="8.08893" x2="1004" y2="8.08893" stroke="#585757"/>
<line x1="30" y1="56.0889" x2="1004" y2="56.0889" stroke="#585757"/>
<line x1="30" y1="104.089" x2="1004" y2="104.089" stroke="#585757"/>
<line x1="30" y1="152.089" x2="1004" y2="152.089" stroke="#585757"/>
<line x1="30" y1="200.089" x2="1004" y2="200.089" stroke="#585757"/>
<line x1="30" y1="248.089" x2="1004" y2="248.089" stroke="#585757"/>
<line x1="30" y1="296.089" x2="1004" y2="296.089" stroke="#585757"/>
<line x1="30" y1="344.089" x2="1004" y2="344.089" stroke="#585757"/>
<line x1="30" y1="392.089" x2="1004" y2="392.089" stroke="#585757"/>
<line x1="30" y1="440.089" x2="1004" y2="440.089" stroke="#585757"/>
<line x1="30" y1="488.089" x2="1004" y2="488.089" stroke="#585757"/>
<line x1="30" y1="536.089" x2="1004" y2="536.089" stroke="#585757"/>
<path d="M69.2012 564.934H69.9746C70.3535 564.934 70.666 564.872 70.9121 564.747C71.1621 564.618 71.3477 564.444 71.4688 564.225C71.5938 564.003 71.6562 563.753 71.6562 563.475C71.6562 563.147 71.6016 562.872 71.4922 562.649C71.3828 562.427 71.2188 562.259 71 562.145C70.7812 562.032 70.5039 561.975 70.168 561.975C69.8633 561.975 69.5938 562.036 69.3594 562.157C69.1289 562.274 68.9473 562.442 68.8145 562.661C68.6855 562.88 68.6211 563.138 68.6211 563.434H67.5371C67.5371 563.001 67.6465 562.606 67.8652 562.251C68.084 561.895 68.3906 561.612 68.7852 561.401C69.1836 561.19 69.6445 561.085 70.168 561.085C70.6836 561.085 71.1348 561.177 71.5215 561.36C71.9082 561.54 72.209 561.809 72.4238 562.169C72.6387 562.524 72.7461 562.968 72.7461 563.499C72.7461 563.714 72.6953 563.944 72.5938 564.19C72.4961 564.432 72.3418 564.659 72.1309 564.87C71.9238 565.081 71.6543 565.255 71.3223 565.391C70.9902 565.524 70.5918 565.591 70.127 565.591H69.2012V564.934ZM69.2012 565.825V565.175H70.127C70.6699 565.175 71.1191 565.239 71.4746 565.368C71.8301 565.497 72.1094 565.669 72.3125 565.884C72.5195 566.098 72.6641 566.335 72.7461 566.593C72.832 566.846 72.875 567.1 72.875 567.354C72.875 567.753 72.8066 568.106 72.6699 568.415C72.5371 568.723 72.3477 568.985 72.1016 569.2C71.8594 569.415 71.5742 569.577 71.2461 569.686C70.918 569.796 70.5605 569.85 70.1738 569.85C69.8027 569.85 69.4531 569.798 69.125 569.692C68.8008 569.587 68.5137 569.434 68.2637 569.235C68.0137 569.032 67.8184 568.784 67.6777 568.491C67.5371 568.194 67.4668 567.856 67.4668 567.477H68.5508C68.5508 567.774 68.6152 568.034 68.7441 568.257C68.877 568.479 69.0645 568.653 69.3066 568.778C69.5527 568.899 69.8418 568.96 70.1738 568.96C70.5059 568.96 70.791 568.903 71.0293 568.79C71.2715 568.673 71.457 568.497 71.5859 568.263C71.7188 568.028 71.7852 567.733 71.7852 567.378C71.7852 567.022 71.7109 566.731 71.5625 566.505C71.4141 566.274 71.2031 566.104 70.9297 565.995C70.6602 565.882 70.3418 565.825 69.9746 565.825H69.2012ZM74.4395 569.159C74.4395 568.975 74.4961 568.821 74.6094 568.696C74.7266 568.567 74.8945 568.503 75.1133 568.503C75.332 568.503 75.498 568.567 75.6113 568.696C75.7285 568.821 75.7871 568.975 75.7871 569.159C75.7871 569.339 75.7285 569.491 75.6113 569.616C75.498 569.741 75.332 569.804 75.1133 569.804C74.8945 569.804 74.7266 569.741 74.6094 569.616C74.4961 569.491 74.4395 569.339 74.4395 569.159ZM74.4453 563.985C74.4453 563.802 74.502 563.647 74.6152 563.522C74.7324 563.393 74.9004 563.329 75.1191 563.329C75.3379 563.329 75.5039 563.393 75.6172 563.522C75.7344 563.647 75.793 563.802 75.793 563.985C75.793 564.165 75.7344 564.317 75.6172 564.442C75.5039 564.567 75.3379 564.63 75.1191 564.63C74.9004 564.63 74.7324 564.567 74.6152 564.442C74.502 564.317 74.4453 564.165 74.4453 563.985ZM82.8652 568.843V569.733H77.2812V568.954L80.0762 565.843C80.4199 565.46 80.6855 565.136 80.873 564.87C81.0645 564.6 81.1973 564.36 81.2715 564.149C81.3496 563.934 81.3887 563.716 81.3887 563.493C81.3887 563.212 81.3301 562.958 81.2129 562.731C81.0996 562.501 80.9316 562.317 80.709 562.18C80.4863 562.044 80.2168 561.975 79.9004 561.975C79.5215 561.975 79.2051 562.05 78.9512 562.198C78.7012 562.343 78.5137 562.546 78.3887 562.807C78.2637 563.069 78.2012 563.37 78.2012 563.71H77.1172C77.1172 563.229 77.2227 562.79 77.4336 562.391C77.6445 561.993 77.957 561.677 78.3711 561.442C78.7852 561.204 79.2949 561.085 79.9004 561.085C80.4395 561.085 80.9004 561.18 81.2832 561.372C81.666 561.559 81.959 561.825 82.1621 562.169C82.3691 562.509 82.4727 562.907 82.4727 563.364C82.4727 563.614 82.4297 563.868 82.3438 564.126C82.2617 564.38 82.1465 564.634 81.998 564.888C81.8535 565.141 81.6836 565.391 81.4883 565.638C81.2969 565.884 81.0918 566.126 80.873 566.364L78.5879 568.843H82.8652ZM89.5391 561.202V561.811L86.0059 569.733H84.8633L88.3906 562.093H83.7734V561.202H89.5391ZM97.1797 566.388H94.9004V565.468H97.1797C97.6211 565.468 97.9785 565.397 98.252 565.257C98.5254 565.116 98.7246 564.921 98.8496 564.671C98.9785 564.421 99.043 564.136 99.043 563.815C99.043 563.522 98.9785 563.247 98.8496 562.989C98.7246 562.731 98.5254 562.524 98.252 562.368C97.9785 562.208 97.6211 562.128 97.1797 562.128H95.1641V569.733H94.0332V561.202H97.1797C97.8242 561.202 98.3691 561.313 98.8145 561.536C99.2598 561.759 99.5977 562.067 99.8281 562.462C100.059 562.852 100.174 563.3 100.174 563.804C100.174 564.35 100.059 564.817 99.8281 565.204C99.5977 565.591 99.2598 565.886 98.8145 566.089C98.3691 566.288 97.8242 566.388 97.1797 566.388ZM101.961 561.202H103.057L105.852 568.157L108.641 561.202H109.742L106.273 569.733H105.418L101.961 561.202ZM101.604 561.202H102.57L102.729 566.405V569.733H101.604V561.202ZM109.127 561.202H110.094V569.733H108.969V566.405L109.127 561.202Z" fill="#BABABA"/>
<path d="M209.201 564.934H209.975C210.354 564.934 210.666 564.872 210.912 564.747C211.162 564.618 211.348 564.444 211.469 564.225C211.594 564.003 211.656 563.753 211.656 563.475C211.656 563.147 211.602 562.872 211.492 562.649C211.383 562.427 211.219 562.259 211 562.145C210.781 562.032 210.504 561.975 210.168 561.975C209.863 561.975 209.594 562.036 209.359 562.157C209.129 562.274 208.947 562.442 208.814 562.661C208.686 562.88 208.621 563.138 208.621 563.434H207.537C207.537 563.001 207.646 562.606 207.865 562.251C208.084 561.895 208.391 561.612 208.785 561.401C209.184 561.19 209.645 561.085 210.168 561.085C210.684 561.085 211.135 561.177 211.521 561.36C211.908 561.54 212.209 561.809 212.424 562.169C212.639 562.524 212.746 562.968 212.746 563.499C212.746 563.714 212.695 563.944 212.594 564.19C212.496 564.432 212.342 564.659 212.131 564.87C211.924 565.081 211.654 565.255 211.322 565.391C210.99 565.524 210.592 565.591 210.127 565.591H209.201V564.934ZM209.201 565.825V565.175H210.127C210.67 565.175 211.119 565.239 211.475 565.368C211.83 565.497 212.109 565.669 212.312 565.884C212.52 566.098 212.664 566.335 212.746 566.593C212.832 566.846 212.875 567.1 212.875 567.354C212.875 567.753 212.807 568.106 212.67 568.415C212.537 568.723 212.348 568.985 212.102 569.2C211.859 569.415 211.574 569.577 211.246 569.686C210.918 569.796 210.561 569.85 210.174 569.85C209.803 569.85 209.453 569.798 209.125 569.692C208.801 569.587 208.514 569.434 208.264 569.235C208.014 569.032 207.818 568.784 207.678 568.491C207.537 568.194 207.467 567.856 207.467 567.477H208.551C208.551 567.774 208.615 568.034 208.744 568.257C208.877 568.479 209.064 568.653 209.307 568.778C209.553 568.899 209.842 568.96 210.174 568.96C210.506 568.96 210.791 568.903 211.029 568.79C211.271 568.673 211.457 568.497 211.586 568.263C211.719 568.028 211.785 567.733 211.785 567.378C211.785 567.022 211.711 566.731 211.562 566.505C211.414 566.274 211.203 566.104 210.93 565.995C210.66 565.882 210.342 565.825 209.975 565.825H209.201ZM214.439 569.159C214.439 568.975 214.496 568.821 214.609 568.696C214.727 568.567 214.895 568.503 215.113 568.503C215.332 568.503 215.498 568.567 215.611 568.696C215.729 568.821 215.787 568.975 215.787 569.159C215.787 569.339 215.729 569.491 215.611 569.616C215.498 569.741 215.332 569.804 215.113 569.804C214.895 569.804 214.727 569.741 214.609 569.616C214.496 569.491 214.439 569.339 214.439 569.159ZM214.445 563.985C214.445 563.802 214.502 563.647 214.615 563.522C214.732 563.393 214.9 563.329 215.119 563.329C215.338 563.329 215.504 563.393 215.617 563.522C215.734 563.647 215.793 563.802 215.793 563.985C215.793 564.165 215.734 564.317 215.617 564.442C215.504 564.567 215.338 564.63 215.119 564.63C214.9 564.63 214.732 564.567 214.615 564.442C214.502 564.317 214.445 564.165 214.445 563.985ZM222.865 568.843V569.733H217.281V568.954L220.076 565.843C220.42 565.46 220.686 565.136 220.873 564.87C221.064 564.6 221.197 564.36 221.271 564.149C221.35 563.934 221.389 563.716 221.389 563.493C221.389 563.212 221.33 562.958 221.213 562.731C221.1 562.501 220.932 562.317 220.709 562.18C220.486 562.044 220.217 561.975 219.9 561.975C219.521 561.975 219.205 562.05 218.951 562.198C218.701 562.343 218.514 562.546 218.389 562.807C218.264 563.069 218.201 563.37 218.201 563.71H217.117C217.117 563.229 217.223 562.79 217.434 562.391C217.645 561.993 217.957 561.677 218.371 561.442C218.785 561.204 219.295 561.085 219.9 561.085C220.439 561.085 220.9 561.18 221.283 561.372C221.666 561.559 221.959 561.825 222.162 562.169C222.369 562.509 222.473 562.907 222.473 563.364C222.473 563.614 222.43 563.868 222.344 564.126C222.262 564.38 222.146 564.634 221.998 564.888C221.854 565.141 221.684 565.391 221.488 565.638C221.297 565.884 221.092 566.126 220.873 566.364L218.588 568.843H222.865ZM229.404 567.425C229.404 567.944 229.283 568.386 229.041 568.749C228.803 569.108 228.479 569.382 228.068 569.569C227.662 569.757 227.203 569.85 226.691 569.85C226.18 569.85 225.719 569.757 225.309 569.569C224.898 569.382 224.574 569.108 224.336 568.749C224.098 568.386 223.979 567.944 223.979 567.425C223.979 567.085 224.043 566.774 224.172 566.493C224.305 566.208 224.49 565.96 224.729 565.749C224.971 565.538 225.256 565.376 225.584 565.263C225.916 565.145 226.281 565.087 226.68 565.087C227.203 565.087 227.67 565.188 228.08 565.391C228.49 565.591 228.812 565.866 229.047 566.218C229.285 566.569 229.404 566.971 229.404 567.425ZM228.314 567.401C228.314 567.085 228.246 566.805 228.109 566.563C227.973 566.317 227.781 566.126 227.535 565.989C227.289 565.852 227.004 565.784 226.68 565.784C226.348 565.784 226.061 565.852 225.818 565.989C225.58 566.126 225.395 566.317 225.262 566.563C225.129 566.805 225.062 567.085 225.062 567.401C225.062 567.729 225.127 568.011 225.256 568.245C225.389 568.475 225.576 568.653 225.818 568.778C226.064 568.899 226.355 568.96 226.691 568.96C227.027 568.96 227.316 568.899 227.559 568.778C227.801 568.653 227.986 568.475 228.115 568.245C228.248 568.011 228.314 567.729 228.314 567.401ZM229.205 563.423C229.205 563.837 229.096 564.21 228.877 564.542C228.658 564.874 228.359 565.136 227.98 565.327C227.602 565.518 227.172 565.614 226.691 565.614C226.203 565.614 225.768 565.518 225.385 565.327C225.006 565.136 224.709 564.874 224.494 564.542C224.279 564.21 224.172 563.837 224.172 563.423C224.172 562.927 224.279 562.505 224.494 562.157C224.713 561.809 225.012 561.544 225.391 561.36C225.77 561.177 226.201 561.085 226.686 561.085C227.174 561.085 227.607 561.177 227.986 561.36C228.365 561.544 228.662 561.809 228.877 562.157C229.096 562.505 229.205 562.927 229.205 563.423ZM228.121 563.44C228.121 563.155 228.061 562.903 227.939 562.684C227.818 562.466 227.65 562.294 227.436 562.169C227.221 562.04 226.971 561.975 226.686 561.975C226.4 561.975 226.15 562.036 225.936 562.157C225.725 562.274 225.559 562.442 225.438 562.661C225.32 562.88 225.262 563.139 225.262 563.44C225.262 563.733 225.32 563.989 225.438 564.208C225.559 564.427 225.727 564.596 225.941 564.718C226.156 564.839 226.406 564.899 226.691 564.899C226.977 564.899 227.225 564.839 227.436 564.718C227.65 564.596 227.818 564.427 227.939 564.208C228.061 563.989 228.121 563.733 228.121 563.44ZM237.18 566.388H234.9V565.468H237.18C237.621 565.468 237.979 565.397 238.252 565.257C238.525 565.116 238.725 564.921 238.85 564.671C238.979 564.421 239.043 564.136 239.043 563.815C239.043 563.522 238.979 563.247 238.85 562.989C238.725 562.731 238.525 562.524 238.252 562.368C237.979 562.208 237.621 562.128 237.18 562.128H235.164V569.733H234.033V561.202H237.18C237.824 561.202 238.369 561.313 238.814 561.536C239.26 561.759 239.598 562.067 239.828 562.462C240.059 562.852 240.174 563.3 240.174 563.804C240.174 564.35 240.059 564.817 239.828 565.204C239.598 565.591 239.26 565.886 238.814 566.089C238.369 566.288 237.824 566.388 237.18 566.388ZM241.961 561.202H243.057L245.852 568.157L248.641 561.202H249.742L246.273 569.733H245.418L241.961 561.202ZM241.604 561.202H242.57L242.729 566.405V569.733H241.604V561.202ZM249.127 561.202H250.094V569.733H248.969V566.405L249.127 561.202Z" fill="#BABABA"/>
<path d="M349.201 564.934H349.975C350.354 564.934 350.666 564.872 350.912 564.747C351.162 564.618 351.348 564.444 351.469 564.225C351.594 564.003 351.656 563.753 351.656 563.475C351.656 563.147 351.602 562.872 351.492 562.649C351.383 562.427 351.219 562.259 351 562.145C350.781 562.032 350.504 561.975 350.168 561.975C349.863 561.975 349.594 562.036 349.359 562.157C349.129 562.274 348.947 562.442 348.814 562.661C348.686 562.88 348.621 563.138 348.621 563.434H347.537C347.537 563.001 347.646 562.606 347.865 562.251C348.084 561.895 348.391 561.612 348.785 561.401C349.184 561.19 349.645 561.085 350.168 561.085C350.684 561.085 351.135 561.177 351.521 561.36C351.908 561.54 352.209 561.809 352.424 562.169C352.639 562.524 352.746 562.968 352.746 563.499C352.746 563.714 352.695 563.944 352.594 564.19C352.496 564.432 352.342 564.659 352.131 564.87C351.924 565.081 351.654 565.255 351.322 565.391C350.99 565.524 350.592 565.591 350.127 565.591H349.201V564.934ZM349.201 565.825V565.175H350.127C350.67 565.175 351.119 565.239 351.475 565.368C351.83 565.497 352.109 565.669 352.312 565.884C352.52 566.098 352.664 566.335 352.746 566.593C352.832 566.846 352.875 567.1 352.875 567.354C352.875 567.753 352.807 568.106 352.67 568.415C352.537 568.723 352.348 568.985 352.102 569.2C351.859 569.415 351.574 569.577 351.246 569.686C350.918 569.796 350.561 569.85 350.174 569.85C349.803 569.85 349.453 569.798 349.125 569.692C348.801 569.587 348.514 569.434 348.264 569.235C348.014 569.032 347.818 568.784 347.678 568.491C347.537 568.194 347.467 567.856 347.467 567.477H348.551C348.551 567.774 348.615 568.034 348.744 568.257C348.877 568.479 349.064 568.653 349.307 568.778C349.553 568.899 349.842 568.96 350.174 568.96C350.506 568.96 350.791 568.903 351.029 568.79C351.271 568.673 351.457 568.497 351.586 568.263C351.719 568.028 351.785 567.733 351.785 567.378C351.785 567.022 351.711 566.731 351.562 566.505C351.414 566.274 351.203 566.104 350.93 565.995C350.66 565.882 350.342 565.825 349.975 565.825H349.201ZM354.439 569.159C354.439 568.975 354.496 568.821 354.609 568.696C354.727 568.567 354.895 568.503 355.113 568.503C355.332 568.503 355.498 568.567 355.611 568.696C355.729 568.821 355.787 568.975 355.787 569.159C355.787 569.339 355.729 569.491 355.611 569.616C355.498 569.741 355.332 569.804 355.113 569.804C354.895 569.804 354.727 569.741 354.609 569.616C354.496 569.491 354.439 569.339 354.439 569.159ZM354.445 563.985C354.445 563.802 354.502 563.647 354.615 563.522C354.732 563.393 354.9 563.329 355.119 563.329C355.338 563.329 355.504 563.393 355.617 563.522C355.734 563.647 355.793 563.802 355.793 563.985C355.793 564.165 355.734 564.317 355.617 564.442C355.504 564.567 355.338 564.63 355.119 564.63C354.9 564.63 354.732 564.567 354.615 564.442C354.502 564.317 354.445 564.165 354.445 563.985ZM362.865 568.843V569.733H357.281V568.954L360.076 565.843C360.42 565.46 360.686 565.136 360.873 564.87C361.064 564.6 361.197 564.36 361.271 564.149C361.35 563.934 361.389 563.716 361.389 563.493C361.389 563.212 361.33 562.958 361.213 562.731C361.1 562.501 360.932 562.317 360.709 562.18C360.486 562.044 360.217 561.975 359.9 561.975C359.521 561.975 359.205 562.05 358.951 562.198C358.701 562.343 358.514 562.546 358.389 562.807C358.264 563.069 358.201 563.37 358.201 563.71H357.117C357.117 563.229 357.223 562.79 357.434 562.391C357.645 561.993 357.957 561.677 358.371 561.442C358.785 561.204 359.295 561.085 359.9 561.085C360.439 561.085 360.9 561.18 361.283 561.372C361.666 561.559 361.959 561.825 362.162 562.169C362.369 562.509 362.473 562.907 362.473 563.364C362.473 563.614 362.43 563.868 362.344 564.126C362.262 564.38 362.146 564.634 361.998 564.888C361.854 565.141 361.684 565.391 361.488 565.638C361.297 565.884 361.092 566.126 360.873 566.364L358.588 568.843H362.865ZM365.104 568.825H365.215C365.84 568.825 366.348 568.737 366.738 568.561C367.129 568.386 367.43 568.149 367.641 567.852C367.852 567.555 367.996 567.221 368.074 566.85C368.152 566.475 368.191 566.091 368.191 565.696V564.389C368.191 564.003 368.146 563.659 368.057 563.358C367.971 563.057 367.85 562.805 367.693 562.602C367.541 562.399 367.367 562.245 367.172 562.139C366.977 562.034 366.77 561.981 366.551 561.981C366.301 561.981 366.076 562.032 365.877 562.134C365.682 562.231 365.516 562.37 365.379 562.55C365.246 562.729 365.145 562.94 365.074 563.182C365.004 563.425 364.969 563.688 364.969 563.973C364.969 564.227 365 564.473 365.062 564.712C365.125 564.95 365.221 565.165 365.35 565.356C365.479 565.548 365.639 565.7 365.83 565.813C366.025 565.923 366.254 565.977 366.516 565.977C366.758 565.977 366.984 565.93 367.195 565.837C367.41 565.739 367.6 565.608 367.764 565.444C367.932 565.276 368.064 565.087 368.162 564.876C368.264 564.665 368.322 564.444 368.338 564.214H368.854C368.854 564.538 368.789 564.858 368.66 565.175C368.535 565.487 368.359 565.772 368.133 566.03C367.906 566.288 367.641 566.495 367.336 566.651C367.031 566.804 366.699 566.88 366.34 566.88C365.918 566.88 365.553 566.798 365.244 566.634C364.936 566.47 364.682 566.251 364.482 565.977C364.287 565.704 364.141 565.399 364.043 565.063C363.949 564.723 363.902 564.38 363.902 564.032C363.902 563.626 363.959 563.245 364.072 562.889C364.186 562.534 364.354 562.221 364.576 561.952C364.799 561.679 365.074 561.466 365.402 561.313C365.734 561.161 366.117 561.085 366.551 561.085C367.039 561.085 367.455 561.182 367.799 561.378C368.143 561.573 368.422 561.835 368.637 562.163C368.855 562.491 369.016 562.86 369.117 563.27C369.219 563.68 369.27 564.102 369.27 564.536V564.929C369.27 565.37 369.24 565.819 369.182 566.276C369.127 566.729 369.02 567.163 368.859 567.577C368.703 567.991 368.475 568.362 368.174 568.69C367.873 569.014 367.48 569.272 366.996 569.464C366.516 569.651 365.922 569.745 365.215 569.745H365.104V568.825ZM377.18 566.388H374.9V565.468H377.18C377.621 565.468 377.979 565.397 378.252 565.257C378.525 565.116 378.725 564.921 378.85 564.671C378.979 564.421 379.043 564.136 379.043 563.815C379.043 563.522 378.979 563.247 378.85 562.989C378.725 562.731 378.525 562.524 378.252 562.368C377.979 562.208 377.621 562.128 377.18 562.128H375.164V569.733H374.033V561.202H377.18C377.824 561.202 378.369 561.313 378.814 561.536C379.26 561.759 379.598 562.067 379.828 562.462C380.059 562.852 380.174 563.3 380.174 563.804C380.174 564.35 380.059 564.817 379.828 565.204C379.598 565.591 379.26 565.886 378.814 566.089C378.369 566.288 377.824 566.388 377.18 566.388ZM381.961 561.202H383.057L385.852 568.157L388.641 561.202H389.742L386.273 569.733H385.418L381.961 561.202ZM381.604 561.202H382.57L382.729 566.405V569.733H381.604V561.202ZM389.127 561.202H390.094V569.733H388.969V566.405L389.127 561.202Z" fill="#BABABA"/>
<path d="M489.201 564.934H489.975C490.354 564.934 490.666 564.872 490.912 564.747C491.162 564.618 491.348 564.444 491.469 564.225C491.594 564.003 491.656 563.753 491.656 563.475C491.656 563.147 491.602 562.872 491.492 562.649C491.383 562.427 491.219 562.259 491 562.145C490.781 562.032 490.504 561.975 490.168 561.975C489.863 561.975 489.594 562.036 489.359 562.157C489.129 562.274 488.947 562.442 488.814 562.661C488.686 562.88 488.621 563.138 488.621 563.434H487.537C487.537 563.001 487.646 562.606 487.865 562.251C488.084 561.895 488.391 561.612 488.785 561.401C489.184 561.19 489.645 561.085 490.168 561.085C490.684 561.085 491.135 561.177 491.521 561.36C491.908 561.54 492.209 561.809 492.424 562.169C492.639 562.524 492.746 562.968 492.746 563.499C492.746 563.714 492.695 563.944 492.594 564.19C492.496 564.432 492.342 564.659 492.131 564.87C491.924 565.081 491.654 565.255 491.322 565.391C490.99 565.524 490.592 565.591 490.127 565.591H489.201V564.934ZM489.201 565.825V565.175H490.127C490.67 565.175 491.119 565.239 491.475 565.368C491.83 565.497 492.109 565.669 492.312 565.884C492.52 566.098 492.664 566.335 492.746 566.593C492.832 566.846 492.875 567.1 492.875 567.354C492.875 567.753 492.807 568.106 492.67 568.415C492.537 568.723 492.348 568.985 492.102 569.2C491.859 569.415 491.574 569.577 491.246 569.686C490.918 569.796 490.561 569.85 490.174 569.85C489.803 569.85 489.453 569.798 489.125 569.692C488.801 569.587 488.514 569.434 488.264 569.235C488.014 569.032 487.818 568.784 487.678 568.491C487.537 568.194 487.467 567.856 487.467 567.477H488.551C488.551 567.774 488.615 568.034 488.744 568.257C488.877 568.479 489.064 568.653 489.307 568.778C489.553 568.899 489.842 568.96 490.174 568.96C490.506 568.96 490.791 568.903 491.029 568.79C491.271 568.673 491.457 568.497 491.586 568.263C491.719 568.028 491.785 567.733 491.785 567.378C491.785 567.022 491.711 566.731 491.562 566.505C491.414 566.274 491.203 566.104 490.93 565.995C490.66 565.882 490.342 565.825 489.975 565.825H489.201ZM494.439 569.159C494.439 568.975 494.496 568.821 494.609 568.696C494.727 568.567 494.895 568.503 495.113 568.503C495.332 568.503 495.498 568.567 495.611 568.696C495.729 568.821 495.787 568.975 495.787 569.159C495.787 569.339 495.729 569.491 495.611 569.616C495.498 569.741 495.332 569.804 495.113 569.804C494.895 569.804 494.727 569.741 494.609 569.616C494.496 569.491 494.439 569.339 494.439 569.159ZM494.445 563.985C494.445 563.802 494.502 563.647 494.615 563.522C494.732 563.393 494.9 563.329 495.119 563.329C495.338 563.329 495.504 563.393 495.617 563.522C495.734 563.647 495.793 563.802 495.793 563.985C495.793 564.165 495.734 564.317 495.617 564.442C495.504 564.567 495.338 564.63 495.119 564.63C494.9 564.63 494.732 564.567 494.615 564.442C494.502 564.317 494.445 564.165 494.445 563.985ZM498.857 564.934H499.631C500.01 564.934 500.322 564.872 500.568 564.747C500.818 564.618 501.004 564.444 501.125 564.225C501.25 564.003 501.312 563.753 501.312 563.475C501.312 563.147 501.258 562.872 501.148 562.649C501.039 562.427 500.875 562.259 500.656 562.145C500.438 562.032 500.16 561.975 499.824 561.975C499.52 561.975 499.25 562.036 499.016 562.157C498.785 562.274 498.604 562.442 498.471 562.661C498.342 562.88 498.277 563.138 498.277 563.434H497.193C497.193 563.001 497.303 562.606 497.521 562.251C497.74 561.895 498.047 561.612 498.441 561.401C498.84 561.19 499.301 561.085 499.824 561.085C500.34 561.085 500.791 561.177 501.178 561.36C501.564 561.54 501.865 561.809 502.08 562.169C502.295 562.524 502.402 562.968 502.402 563.499C502.402 563.714 502.352 563.944 502.25 564.19C502.152 564.432 501.998 564.659 501.787 564.87C501.58 565.081 501.311 565.255 500.979 565.391C500.646 565.524 500.248 565.591 499.783 565.591H498.857V564.934ZM498.857 565.825V565.175H499.783C500.326 565.175 500.775 565.239 501.131 565.368C501.486 565.497 501.766 565.669 501.969 565.884C502.176 566.098 502.32 566.335 502.402 566.593C502.488 566.846 502.531 567.1 502.531 567.354C502.531 567.753 502.463 568.106 502.326 568.415C502.193 568.723 502.004 568.985 501.758 569.2C501.516 569.415 501.23 569.577 500.902 569.686C500.574 569.796 500.217 569.85 499.83 569.85C499.459 569.85 499.109 569.798 498.781 569.692C498.457 569.587 498.17 569.434 497.92 569.235C497.67 569.032 497.475 568.784 497.334 568.491C497.193 568.194 497.123 567.856 497.123 567.477H498.207C498.207 567.774 498.271 568.034 498.4 568.257C498.533 568.479 498.721 568.653 498.963 568.778C499.209 568.899 499.498 568.96 499.83 568.96C500.162 568.96 500.447 568.903 500.686 568.79C500.928 568.673 501.113 568.497 501.242 568.263C501.375 568.028 501.441 567.733 501.441 567.378C501.441 567.022 501.367 566.731 501.219 566.505C501.07 566.274 500.859 566.104 500.586 565.995C500.316 565.882 499.998 565.825 499.631 565.825H498.857ZM509.381 564.788V566.089C509.381 566.788 509.318 567.378 509.193 567.858C509.068 568.339 508.889 568.725 508.654 569.018C508.42 569.311 508.137 569.524 507.805 569.657C507.477 569.786 507.105 569.85 506.691 569.85C506.363 569.85 506.061 569.809 505.783 569.727C505.506 569.645 505.256 569.514 505.033 569.335C504.814 569.151 504.627 568.913 504.471 568.62C504.314 568.327 504.195 567.971 504.113 567.554C504.031 567.136 503.99 566.647 503.99 566.089V564.788C503.99 564.089 504.053 563.503 504.178 563.03C504.307 562.557 504.488 562.179 504.723 561.893C504.957 561.604 505.238 561.397 505.566 561.272C505.898 561.147 506.27 561.085 506.68 561.085C507.012 561.085 507.316 561.126 507.594 561.208C507.875 561.286 508.125 561.413 508.344 561.589C508.562 561.761 508.748 561.991 508.9 562.28C509.057 562.565 509.176 562.915 509.258 563.329C509.34 563.743 509.381 564.229 509.381 564.788ZM508.291 566.264V564.606C508.291 564.223 508.268 563.888 508.221 563.598C508.178 563.305 508.113 563.055 508.027 562.848C507.941 562.641 507.832 562.473 507.699 562.345C507.57 562.216 507.42 562.122 507.248 562.063C507.08 562.001 506.891 561.97 506.68 561.97C506.422 561.97 506.193 562.018 505.994 562.116C505.795 562.21 505.627 562.36 505.49 562.567C505.357 562.774 505.256 563.046 505.186 563.382C505.115 563.718 505.08 564.126 505.08 564.606V566.264C505.08 566.647 505.102 566.985 505.145 567.278C505.191 567.571 505.26 567.825 505.35 568.04C505.439 568.251 505.549 568.425 505.678 568.561C505.807 568.698 505.955 568.8 506.123 568.866C506.295 568.929 506.484 568.96 506.691 568.96C506.957 568.96 507.189 568.909 507.389 568.807C507.588 568.706 507.754 568.548 507.887 568.333C508.023 568.114 508.125 567.835 508.191 567.495C508.258 567.151 508.291 566.741 508.291 566.264ZM517.18 566.388H514.9V565.468H517.18C517.621 565.468 517.979 565.397 518.252 565.257C518.525 565.116 518.725 564.921 518.85 564.671C518.979 564.421 519.043 564.136 519.043 563.815C519.043 563.522 518.979 563.247 518.85 562.989C518.725 562.731 518.525 562.524 518.252 562.368C517.979 562.208 517.621 562.128 517.18 562.128H515.164V569.733H514.033V561.202H517.18C517.824 561.202 518.369 561.313 518.814 561.536C519.26 561.759 519.598 562.067 519.828 562.462C520.059 562.852 520.174 563.3 520.174 563.804C520.174 564.35 520.059 564.817 519.828 565.204C519.598 565.591 519.26 565.886 518.814 566.089C518.369 566.288 517.824 566.388 517.18 566.388ZM521.961 561.202H523.057L525.852 568.157L528.641 561.202H529.742L526.273 569.733H525.418L521.961 561.202ZM521.604 561.202H522.57L522.729 566.405V569.733H521.604V561.202ZM529.127 561.202H530.094V569.733H528.969V566.405L529.127 561.202Z" fill="#BABABA"/>
<path d="M629.201 564.934H629.975C630.354 564.934 630.666 564.872 630.912 564.747C631.162 564.618 631.348 564.444 631.469 564.225C631.594 564.003 631.656 563.753 631.656 563.475C631.656 563.147 631.602 562.872 631.492 562.649C631.383 562.427 631.219 562.259 631 562.145C630.781 562.032 630.504 561.975 630.168 561.975C629.863 561.975 629.594 562.036 629.359 562.157C629.129 562.274 628.947 562.442 628.814 562.661C628.686 562.88 628.621 563.138 628.621 563.434H627.537C627.537 563.001 627.646 562.606 627.865 562.251C628.084 561.895 628.391 561.612 628.785 561.401C629.184 561.19 629.645 561.085 630.168 561.085C630.684 561.085 631.135 561.177 631.521 561.36C631.908 561.54 632.209 561.809 632.424 562.169C632.639 562.524 632.746 562.968 632.746 563.499C632.746 563.714 632.695 563.944 632.594 564.19C632.496 564.432 632.342 564.659 632.131 564.87C631.924 565.081 631.654 565.255 631.322 565.391C630.99 565.524 630.592 565.591 630.127 565.591H629.201V564.934ZM629.201 565.825V565.175H630.127C630.67 565.175 631.119 565.239 631.475 565.368C631.83 565.497 632.109 565.669 632.312 565.884C632.52 566.098 632.664 566.335 632.746 566.593C632.832 566.846 632.875 567.1 632.875 567.354C632.875 567.753 632.807 568.106 632.67 568.415C632.537 568.723 632.348 568.985 632.102 569.2C631.859 569.415 631.574 569.577 631.246 569.686C630.918 569.796 630.561 569.85 630.174 569.85C629.803 569.85 629.453 569.798 629.125 569.692C628.801 569.587 628.514 569.434 628.264 569.235C628.014 569.032 627.818 568.784 627.678 568.491C627.537 568.194 627.467 567.856 627.467 567.477H628.551C628.551 567.774 628.615 568.034 628.744 568.257C628.877 568.479 629.064 568.653 629.307 568.778C629.553 568.899 629.842 568.96 630.174 568.96C630.506 568.96 630.791 568.903 631.029 568.79C631.271 568.673 631.457 568.497 631.586 568.263C631.719 568.028 631.785 567.733 631.785 567.378C631.785 567.022 631.711 566.731 631.562 566.505C631.414 566.274 631.203 566.104 630.93 565.995C630.66 565.882 630.342 565.825 629.975 565.825H629.201ZM634.439 569.159C634.439 568.975 634.496 568.821 634.609 568.696C634.727 568.567 634.895 568.503 635.113 568.503C635.332 568.503 635.498 568.567 635.611 568.696C635.729 568.821 635.787 568.975 635.787 569.159C635.787 569.339 635.729 569.491 635.611 569.616C635.498 569.741 635.332 569.804 635.113 569.804C634.895 569.804 634.727 569.741 634.609 569.616C634.496 569.491 634.439 569.339 634.439 569.159ZM634.445 563.985C634.445 563.802 634.502 563.647 634.615 563.522C634.732 563.393 634.9 563.329 635.119 563.329C635.338 563.329 635.504 563.393 635.617 563.522C635.734 563.647 635.793 563.802 635.793 563.985C635.793 564.165 635.734 564.317 635.617 564.442C635.504 564.567 635.338 564.63 635.119 564.63C634.9 564.63 634.732 564.567 634.615 564.442C634.502 564.317 634.445 564.165 634.445 563.985ZM638.857 564.934H639.631C640.01 564.934 640.322 564.872 640.568 564.747C640.818 564.618 641.004 564.444 641.125 564.225C641.25 564.003 641.312 563.753 641.312 563.475C641.312 563.147 641.258 562.872 641.148 562.649C641.039 562.427 640.875 562.259 640.656 562.145C640.438 562.032 640.16 561.975 639.824 561.975C639.52 561.975 639.25 562.036 639.016 562.157C638.785 562.274 638.604 562.442 638.471 562.661C638.342 562.88 638.277 563.138 638.277 563.434H637.193C637.193 563.001 637.303 562.606 637.521 562.251C637.74 561.895 638.047 561.612 638.441 561.401C638.84 561.19 639.301 561.085 639.824 561.085C640.34 561.085 640.791 561.177 641.178 561.36C641.564 561.54 641.865 561.809 642.08 562.169C642.295 562.524 642.402 562.968 642.402 563.499C642.402 563.714 642.352 563.944 642.25 564.19C642.152 564.432 641.998 564.659 641.787 564.87C641.58 565.081 641.311 565.255 640.979 565.391C640.646 565.524 640.248 565.591 639.783 565.591H638.857V564.934ZM638.857 565.825V565.175H639.783C640.326 565.175 640.775 565.239 641.131 565.368C641.486 565.497 641.766 565.669 641.969 565.884C642.176 566.098 642.32 566.335 642.402 566.593C642.488 566.846 642.531 567.1 642.531 567.354C642.531 567.753 642.463 568.106 642.326 568.415C642.193 568.723 642.004 568.985 641.758 569.2C641.516 569.415 641.23 569.577 640.902 569.686C640.574 569.796 640.217 569.85 639.83 569.85C639.459 569.85 639.109 569.798 638.781 569.692C638.457 569.587 638.17 569.434 637.92 569.235C637.67 569.032 637.475 568.784 637.334 568.491C637.193 568.194 637.123 567.856 637.123 567.477H638.207C638.207 567.774 638.271 568.034 638.4 568.257C638.533 568.479 638.721 568.653 638.963 568.778C639.209 568.899 639.498 568.96 639.83 568.96C640.162 568.96 640.447 568.903 640.686 568.79C640.928 568.673 641.113 568.497 641.242 568.263C641.375 568.028 641.441 567.733 641.441 567.378C641.441 567.022 641.367 566.731 641.219 566.505C641.07 566.274 640.859 566.104 640.586 565.995C640.316 565.882 639.998 565.825 639.631 565.825H638.857ZM647.588 561.155V569.733H646.504V562.509L644.318 563.305V562.327L647.418 561.155H647.588ZM657.18 566.388H654.9V565.468H657.18C657.621 565.468 657.979 565.397 658.252 565.257C658.525 565.116 658.725 564.921 658.85 564.671C658.979 564.421 659.043 564.136 659.043 563.815C659.043 563.522 658.979 563.247 658.85 562.989C658.725 562.731 658.525 562.524 658.252 562.368C657.979 562.208 657.621 562.128 657.18 562.128H655.164V569.733H654.033V561.202H657.18C657.824 561.202 658.369 561.313 658.814 561.536C659.26 561.759 659.598 562.067 659.828 562.462C660.059 562.852 660.174 563.3 660.174 563.804C660.174 564.35 660.059 564.817 659.828 565.204C659.598 565.591 659.26 565.886 658.814 566.089C658.369 566.288 657.824 566.388 657.18 566.388ZM661.961 561.202H663.057L665.852 568.157L668.641 561.202H669.742L666.273 569.733H665.418L661.961 561.202ZM661.604 561.202H662.57L662.729 566.405V569.733H661.604V561.202ZM669.127 561.202H670.094V569.733H668.969V566.405L669.127 561.202Z" fill="#BABABA"/>
<path d="M769.201 564.934H769.975C770.354 564.934 770.666 564.872 770.912 564.747C771.162 564.618 771.348 564.444 771.469 564.225C771.594 564.003 771.656 563.753 771.656 563.475C771.656 563.147 771.602 562.872 771.492 562.649C771.383 562.427 771.219 562.259 771 562.145C770.781 562.032 770.504 561.975 770.168 561.975C769.863 561.975 769.594 562.036 769.359 562.157C769.129 562.274 768.947 562.442 768.814 562.661C768.686 562.88 768.621 563.138 768.621 563.434H767.537C767.537 563.001 767.646 562.606 767.865 562.251C768.084 561.895 768.391 561.612 768.785 561.401C769.184 561.19 769.645 561.085 770.168 561.085C770.684 561.085 771.135 561.177 771.521 561.36C771.908 561.54 772.209 561.809 772.424 562.169C772.639 562.524 772.746 562.968 772.746 563.499C772.746 563.714 772.695 563.944 772.594 564.19C772.496 564.432 772.342 564.659 772.131 564.87C771.924 565.081 771.654 565.255 771.322 565.391C770.99 565.524 770.592 565.591 770.127 565.591H769.201V564.934ZM769.201 565.825V565.175H770.127C770.67 565.175 771.119 565.239 771.475 565.368C771.83 565.497 772.109 565.669 772.312 565.884C772.52 566.098 772.664 566.335 772.746 566.593C772.832 566.846 772.875 567.1 772.875 567.354C772.875 567.753 772.807 568.106 772.67 568.415C772.537 568.723 772.348 568.985 772.102 569.2C771.859 569.415 771.574 569.577 771.246 569.686C770.918 569.796 770.561 569.85 770.174 569.85C769.803 569.85 769.453 569.798 769.125 569.692C768.801 569.587 768.514 569.434 768.264 569.235C768.014 569.032 767.818 568.784 767.678 568.491C767.537 568.194 767.467 567.856 767.467 567.477H768.551C768.551 567.774 768.615 568.034 768.744 568.257C768.877 568.479 769.064 568.653 769.307 568.778C769.553 568.899 769.842 568.96 770.174 568.96C770.506 568.96 770.791 568.903 771.029 568.79C771.271 568.673 771.457 568.497 771.586 568.263C771.719 568.028 771.785 567.733 771.785 567.378C771.785 567.022 771.711 566.731 771.562 566.505C771.414 566.274 771.203 566.104 770.93 565.995C770.66 565.882 770.342 565.825 769.975 565.825H769.201ZM774.439 569.159C774.439 568.975 774.496 568.821 774.609 568.696C774.727 568.567 774.895 568.503 775.113 568.503C775.332 568.503 775.498 568.567 775.611 568.696C775.729 568.821 775.787 568.975 775.787 569.159C775.787 569.339 775.729 569.491 775.611 569.616C775.498 569.741 775.332 569.804 775.113 569.804C774.895 569.804 774.727 569.741 774.609 569.616C774.496 569.491 774.439 569.339 774.439 569.159ZM774.445 563.985C774.445 563.802 774.502 563.647 774.615 563.522C774.732 563.393 774.9 563.329 775.119 563.329C775.338 563.329 775.504 563.393 775.617 563.522C775.734 563.647 775.793 563.802 775.793 563.985C775.793 564.165 775.734 564.317 775.617 564.442C775.504 564.567 775.338 564.63 775.119 564.63C774.9 564.63 774.732 564.567 774.615 564.442C774.502 564.317 774.445 564.165 774.445 563.985ZM778.857 564.934H779.631C780.01 564.934 780.322 564.872 780.568 564.747C780.818 564.618 781.004 564.444 781.125 564.225C781.25 564.003 781.312 563.753 781.312 563.475C781.312 563.147 781.258 562.872 781.148 562.649C781.039 562.427 780.875 562.259 780.656 562.145C780.438 562.032 780.16 561.975 779.824 561.975C779.52 561.975 779.25 562.036 779.016 562.157C778.785 562.274 778.604 562.442 778.471 562.661C778.342 562.88 778.277 563.138 778.277 563.434H777.193C777.193 563.001 777.303 562.606 777.521 562.251C777.74 561.895 778.047 561.612 778.441 561.401C778.84 561.19 779.301 561.085 779.824 561.085C780.34 561.085 780.791 561.177 781.178 561.36C781.564 561.54 781.865 561.809 782.08 562.169C782.295 562.524 782.402 562.968 782.402 563.499C782.402 563.714 782.352 563.944 782.25 564.19C782.152 564.432 781.998 564.659 781.787 564.87C781.58 565.081 781.311 565.255 780.979 565.391C780.646 565.524 780.248 565.591 779.783 565.591H778.857V564.934ZM778.857 565.825V565.175H779.783C780.326 565.175 780.775 565.239 781.131 565.368C781.486 565.497 781.766 565.669 781.969 565.884C782.176 566.098 782.32 566.335 782.402 566.593C782.488 566.846 782.531 567.1 782.531 567.354C782.531 567.753 782.463 568.106 782.326 568.415C782.193 568.723 782.004 568.985 781.758 569.2C781.516 569.415 781.23 569.577 780.902 569.686C780.574 569.796 780.217 569.85 779.83 569.85C779.459 569.85 779.109 569.798 778.781 569.692C778.457 569.587 778.17 569.434 777.92 569.235C777.67 569.032 777.475 568.784 777.334 568.491C777.193 568.194 777.123 567.856 777.123 567.477H778.207C778.207 567.774 778.271 568.034 778.4 568.257C778.533 568.479 778.721 568.653 778.963 568.778C779.209 568.899 779.498 568.96 779.83 568.96C780.162 568.96 780.447 568.903 780.686 568.79C780.928 568.673 781.113 568.497 781.242 568.263C781.375 568.028 781.441 567.733 781.441 567.378C781.441 567.022 781.367 566.731 781.219 566.505C781.07 566.274 780.859 566.104 780.586 565.995C780.316 565.882 779.998 565.825 779.631 565.825H778.857ZM789.615 568.843V569.733H784.031V568.954L786.826 565.843C787.17 565.46 787.436 565.136 787.623 564.87C787.814 564.6 787.947 564.36 788.021 564.149C788.1 563.934 788.139 563.716 788.139 563.493C788.139 563.212 788.08 562.958 787.963 562.731C787.85 562.501 787.682 562.317 787.459 562.18C787.236 562.044 786.967 561.975 786.65 561.975C786.271 561.975 785.955 562.05 785.701 562.198C785.451 562.343 785.264 562.546 785.139 562.807C785.014 563.069 784.951 563.37 784.951 563.71H783.867C783.867 563.229 783.973 562.79 784.184 562.391C784.395 561.993 784.707 561.677 785.121 561.442C785.535 561.204 786.045 561.085 786.65 561.085C787.189 561.085 787.65 561.18 788.033 561.372C788.416 561.559 788.709 561.825 788.912 562.169C789.119 562.509 789.223 562.907 789.223 563.364C789.223 563.614 789.18 563.868 789.094 564.126C789.012 564.38 788.896 564.634 788.748 564.888C788.604 565.141 788.434 565.391 788.238 565.638C788.047 565.884 787.842 566.126 787.623 566.364L785.338 568.843H789.615ZM797.18 566.388H794.9V565.468H797.18C797.621 565.468 797.979 565.397 798.252 565.257C798.525 565.116 798.725 564.921 798.85 564.671C798.979 564.421 799.043 564.136 799.043 563.815C799.043 563.522 798.979 563.247 798.85 562.989C798.725 562.731 798.525 562.524 798.252 562.368C797.979 562.208 797.621 562.128 797.18 562.128H795.164V569.733H794.033V561.202H797.18C797.824 561.202 798.369 561.313 798.814 561.536C799.26 561.759 799.598 562.067 799.828 562.462C800.059 562.852 800.174 563.3 800.174 563.804C800.174 564.35 800.059 564.817 799.828 565.204C799.598 565.591 799.26 565.886 798.814 566.089C798.369 566.288 797.824 566.388 797.18 566.388ZM801.961 561.202H803.057L805.852 568.157L808.641 561.202H809.742L806.273 569.733H805.418L801.961 561.202ZM801.604 561.202H802.57L802.729 566.405V569.733H801.604V561.202ZM809.127 561.202H810.094V569.733H808.969V566.405L809.127 561.202Z" fill="#BABABA"/>
<path d="M909.201 564.934H909.975C910.354 564.934 910.666 564.872 910.912 564.747C911.162 564.618 911.348 564.444 911.469 564.225C911.594 564.003 911.656 563.753 911.656 563.475C911.656 563.147 911.602 562.872 911.492 562.649C911.383 562.427 911.219 562.259 911 562.145C910.781 562.032 910.504 561.975 910.168 561.975C909.863 561.975 909.594 562.036 909.359 562.157C909.129 562.274 908.947 562.442 908.814 562.661C908.686 562.88 908.621 563.138 908.621 563.434H907.537C907.537 563.001 907.646 562.606 907.865 562.251C908.084 561.895 908.391 561.612 908.785 561.401C909.184 561.19 909.645 561.085 910.168 561.085C910.684 561.085 911.135 561.177 911.521 561.36C911.908 561.54 912.209 561.809 912.424 562.169C912.639 562.524 912.746 562.968 912.746 563.499C912.746 563.714 912.695 563.944 912.594 564.19C912.496 564.432 912.342 564.659 912.131 564.87C911.924 565.081 911.654 565.255 911.322 565.391C910.99 565.524 910.592 565.591 910.127 565.591H909.201V564.934ZM909.201 565.825V565.175H910.127C910.67 565.175 911.119 565.239 911.475 565.368C911.83 565.497 912.109 565.669 912.312 565.884C912.52 566.098 912.664 566.335 912.746 566.593C912.832 566.846 912.875 567.1 912.875 567.354C912.875 567.753 912.807 568.106 912.67 568.415C912.537 568.723 912.348 568.985 912.102 569.2C911.859 569.415 911.574 569.577 911.246 569.686C910.918 569.796 910.561 569.85 910.174 569.85C909.803 569.85 909.453 569.798 909.125 569.692C908.801 569.587 908.514 569.434 908.264 569.235C908.014 569.032 907.818 568.784 907.678 568.491C907.537 568.194 907.467 567.856 907.467 567.477H908.551C908.551 567.774 908.615 568.034 908.744 568.257C908.877 568.479 909.064 568.653 909.307 568.778C909.553 568.899 909.842 568.96 910.174 568.96C910.506 568.96 910.791 568.903 911.029 568.79C911.271 568.673 911.457 568.497 911.586 568.263C911.719 568.028 911.785 567.733 911.785 567.378C911.785 567.022 911.711 566.731 911.562 566.505C911.414 566.274 911.203 566.104 910.93 565.995C910.66 565.882 910.342 565.825 909.975 565.825H909.201ZM914.439 569.159C914.439 568.975 914.496 568.821 914.609 568.696C914.727 568.567 914.895 568.503 915.113 568.503C915.332 568.503 915.498 568.567 915.611 568.696C915.729 568.821 915.787 568.975 915.787 569.159C915.787 569.339 915.729 569.491 915.611 569.616C915.498 569.741 915.332 569.804 915.113 569.804C914.895 569.804 914.727 569.741 914.609 569.616C914.496 569.491 914.439 569.339 914.439 569.159ZM914.445 563.985C914.445 563.802 914.502 563.647 914.615 563.522C914.732 563.393 914.9 563.329 915.119 563.329C915.338 563.329 915.504 563.393 915.617 563.522C915.734 563.647 915.793 563.802 915.793 563.985C915.793 564.165 915.734 564.317 915.617 564.442C915.504 564.567 915.338 564.63 915.119 564.63C914.9 564.63 914.732 564.567 914.615 564.442C914.502 564.317 914.445 564.165 914.445 563.985ZM918.857 564.934H919.631C920.01 564.934 920.322 564.872 920.568 564.747C920.818 564.618 921.004 564.444 921.125 564.225C921.25 564.003 921.312 563.753 921.312 563.475C921.312 563.147 921.258 562.872 921.148 562.649C921.039 562.427 920.875 562.259 920.656 562.145C920.438 562.032 920.16 561.975 919.824 561.975C919.52 561.975 919.25 562.036 919.016 562.157C918.785 562.274 918.604 562.442 918.471 562.661C918.342 562.88 918.277 563.138 918.277 563.434H917.193C917.193 563.001 917.303 562.606 917.521 562.251C917.74 561.895 918.047 561.612 918.441 561.401C918.84 561.19 919.301 561.085 919.824 561.085C920.34 561.085 920.791 561.177 921.178 561.36C921.564 561.54 921.865 561.809 922.08 562.169C922.295 562.524 922.402 562.968 922.402 563.499C922.402 563.714 922.352 563.944 922.25 564.19C922.152 564.432 921.998 564.659 921.787 564.87C921.58 565.081 921.311 565.255 920.979 565.391C920.646 565.524 920.248 565.591 919.783 565.591H918.857V564.934ZM918.857 565.825V565.175H919.783C920.326 565.175 920.775 565.239 921.131 565.368C921.486 565.497 921.766 565.669 921.969 565.884C922.176 566.098 922.32 566.335 922.402 566.593C922.488 566.846 922.531 567.1 922.531 567.354C922.531 567.753 922.463 568.106 922.326 568.415C922.193 568.723 922.004 568.985 921.758 569.2C921.516 569.415 921.23 569.577 920.902 569.686C920.574 569.796 920.217 569.85 919.83 569.85C919.459 569.85 919.109 569.798 918.781 569.692C918.457 569.587 918.17 569.434 917.92 569.235C917.67 569.032 917.475 568.784 917.334 568.491C917.193 568.194 917.123 567.856 917.123 567.477H918.207C918.207 567.774 918.271 568.034 918.4 568.257C918.533 568.479 918.721 568.653 918.963 568.778C919.209 568.899 919.498 568.96 919.83 568.96C920.162 568.96 920.447 568.903 920.686 568.79C920.928 568.673 921.113 568.497 921.242 568.263C921.375 568.028 921.441 567.733 921.441 567.378C921.441 567.022 921.367 566.731 921.219 566.505C921.07 566.274 920.859 566.104 920.586 565.995C920.316 565.882 919.998 565.825 919.631 565.825H918.857ZM925.607 564.934H926.381C926.76 564.934 927.072 564.872 927.318 564.747C927.568 564.618 927.754 564.444 927.875 564.225C928 564.003 928.062 563.753 928.062 563.475C928.062 563.147 928.008 562.872 927.898 562.649C927.789 562.427 927.625 562.259 927.406 562.145C927.188 562.032 926.91 561.975 926.574 561.975C926.27 561.975 926 562.036 925.766 562.157C925.535 562.274 925.354 562.442 925.221 562.661C925.092 562.88 925.027 563.138 925.027 563.434H923.943C923.943 563.001 924.053 562.606 924.271 562.251C924.49 561.895 924.797 561.612 925.191 561.401C925.59 561.19 926.051 561.085 926.574 561.085C927.09 561.085 927.541 561.177 927.928 561.36C928.314 561.54 928.615 561.809 928.83 562.169C929.045 562.524 929.152 562.968 929.152 563.499C929.152 563.714 929.102 563.944 929 564.19C928.902 564.432 928.748 564.659 928.537 564.87C928.33 565.081 928.061 565.255 927.729 565.391C927.396 565.524 926.998 565.591 926.533 565.591H925.607V564.934ZM925.607 565.825V565.175H926.533C927.076 565.175 927.525 565.239 927.881 565.368C928.236 565.497 928.516 565.669 928.719 565.884C928.926 566.098 929.07 566.335 929.152 566.593C929.238 566.846 929.281 567.1 929.281 567.354C929.281 567.753 929.213 568.106 929.076 568.415C928.943 568.723 928.754 568.985 928.508 569.2C928.266 569.415 927.98 569.577 927.652 569.686C927.324 569.796 926.967 569.85 926.58 569.85C926.209 569.85 925.859 569.798 925.531 569.692C925.207 569.587 924.92 569.434 924.67 569.235C924.42 569.032 924.225 568.784 924.084 568.491C923.943 568.194 923.873 567.856 923.873 567.477H924.957C924.957 567.774 925.021 568.034 925.15 568.257C925.283 568.479 925.471 568.653 925.713 568.778C925.959 568.899 926.248 568.96 926.58 568.96C926.912 568.96 927.197 568.903 927.436 568.79C927.678 568.673 927.863 568.497 927.992 568.263C928.125 568.028 928.191 567.733 928.191 567.378C928.191 567.022 928.117 566.731 927.969 566.505C927.82 566.274 927.609 566.104 927.336 565.995C927.066 565.882 926.748 565.825 926.381 565.825H925.607ZM937.18 566.388H934.9V565.468H937.18C937.621 565.468 937.979 565.397 938.252 565.257C938.525 565.116 938.725 564.921 938.85 564.671C938.979 564.421 939.043 564.136 939.043 563.815C939.043 563.522 938.979 563.247 938.85 562.989C938.725 562.731 938.525 562.524 938.252 562.368C937.979 562.208 937.621 562.128 937.18 562.128H935.164V569.733H934.033V561.202H937.18C937.824 561.202 938.369 561.313 938.814 561.536C939.26 561.759 939.598 562.067 939.828 562.462C940.059 562.852 940.174 563.3 940.174 563.804C940.174 564.35 940.059 564.817 939.828 565.204C939.598 565.591 939.26 565.886 938.814 566.089C938.369 566.288 937.824 566.388 937.18 566.388ZM941.961 561.202H943.057L945.852 568.157L948.641 561.202H949.742L946.273 569.733H945.418L941.961 561.202ZM941.604 561.202H942.57L942.729 566.405V569.733H941.604V561.202ZM949.127 561.202H950.094V569.733H948.969V566.405L949.127 561.202Z" fill="#BABABA"/>
<path d="M6.22266 5.46875V6.07812L2.68945 14H1.54688L5.07422 6.35938H0.457031V5.46875H6.22266ZM12.9727 5.46875V6.07812L9.43945 14H8.29688L11.8242 6.35938H7.20703V5.46875H12.9727ZM19.7988 13.1094V14H14.2148V13.2207L17.0098 10.1094C17.3535 9.72656 17.6191 9.40234 17.8066 9.13672C17.998 8.86719 18.1309 8.62695 18.2051 8.41602C18.2832 8.20117 18.3223 7.98242 18.3223 7.75977C18.3223 7.47852 18.2637 7.22461 18.1465 6.99805C18.0332 6.76758 17.8652 6.58398 17.6426 6.44727C17.4199 6.31055 17.1504 6.24219 16.834 6.24219C16.4551 6.24219 16.1387 6.31641 15.8848 6.46484C15.6348 6.60938 15.4473 6.8125 15.3223 7.07422C15.1973 7.33594 15.1348 7.63672 15.1348 7.97656H14.0508C14.0508 7.49609 14.1562 7.05664 14.3672 6.6582C14.5781 6.25977 14.8906 5.94336 15.3047 5.70898C15.7188 5.4707 16.2285 5.35156 16.834 5.35156C17.373 5.35156 17.834 5.44727 18.2168 5.63867C18.5996 5.82617 18.8926 6.0918 19.0957 6.43555C19.3027 6.77539 19.4062 7.17383 19.4062 7.63086C19.4062 7.88086 19.3633 8.13477 19.2773 8.39258C19.1953 8.64648 19.0801 8.90039 18.9316 9.1543C18.7871 9.4082 18.6172 9.6582 18.4219 9.9043C18.2305 10.1504 18.0254 10.3926 17.8066 10.6309L15.5215 13.1094H19.7988Z" fill="#BABABA"/>
<path d="M6.22266 53.4688V54.0781L2.68945 62H1.54688L5.07422 54.3594H0.457031V53.4688H6.22266ZM12.9727 53.4688V54.0781L9.43945 62H8.29688L11.8242 54.3594H7.20703V53.4688H12.9727ZM19.5645 57.0547V58.3555C19.5645 59.0547 19.502 59.6445 19.377 60.125C19.252 60.6055 19.0723 60.9922 18.8379 61.2852C18.6035 61.5781 18.3203 61.791 17.9883 61.9238C17.6602 62.0527 17.2891 62.1172 16.875 62.1172C16.5469 62.1172 16.2441 62.0762 15.9668 61.9941C15.6895 61.9121 15.4395 61.7812 15.2168 61.6016C14.998 61.418 14.8105 61.1797 14.6543 60.8867C14.498 60.5938 14.3789 60.2383 14.2969 59.8203C14.2148 59.4023 14.1738 58.9141 14.1738 58.3555V57.0547C14.1738 56.3555 14.2363 55.7695 14.3613 55.2969C14.4902 54.8242 14.6719 54.4453 14.9062 54.1602C15.1406 53.8711 15.4219 53.6641 15.75 53.5391C16.082 53.4141 16.4531 53.3516 16.8633 53.3516C17.1953 53.3516 17.5 53.3926 17.7773 53.4746C18.0586 53.5527 18.3086 53.6797 18.5273 53.8555C18.7461 54.0273 18.9316 54.2578 19.084 54.5469C19.2402 54.832 19.3594 55.1816 19.4414 55.5957C19.5234 56.0098 19.5645 56.4961 19.5645 57.0547ZM18.4746 58.5312V56.873C18.4746 56.4902 18.4512 56.1543 18.4043 55.8652C18.3613 55.5723 18.2969 55.3223 18.2109 55.1152C18.125 54.9082 18.0156 54.7402 17.8828 54.6113C17.7539 54.4824 17.6035 54.3887 17.4316 54.3301C17.2637 54.2676 17.0742 54.2363 16.8633 54.2363C16.6055 54.2363 16.377 54.2852 16.1777 54.3828C15.9785 54.4766 15.8105 54.627 15.6738 54.834C15.541 55.041 15.4395 55.3125 15.3691 55.6484C15.2988 55.9844 15.2637 56.3926 15.2637 56.873V58.5312C15.2637 58.9141 15.2852 59.252 15.3281 59.5449C15.375 59.8379 15.4434 60.0918 15.5332 60.3066C15.623 60.5176 15.7324 60.6914 15.8613 60.8281C15.9902 60.9648 16.1387 61.0664 16.3066 61.1328C16.4785 61.1953 16.668 61.2266 16.875 61.2266C17.1406 61.2266 17.373 61.1758 17.5723 61.0742C17.7715 60.9727 17.9375 60.8145 18.0703 60.5996C18.207 60.3809 18.3086 60.1016 18.375 59.7617C18.4414 59.418 18.4746 59.0078 18.4746 58.5312Z" fill="#BABABA"/>
<path d="M6.22266 101.469V102.078L2.68945 110H1.54688L5.07422 102.359H0.457031V101.469H6.22266ZM11.6191 101.457H11.7129V102.377H11.6191C11.0449 102.377 10.5645 102.471 10.1777 102.658C9.79102 102.842 9.48438 103.09 9.25781 103.402C9.03125 103.711 8.86719 104.059 8.76562 104.445C8.66797 104.832 8.61914 105.225 8.61914 105.623V106.877C8.61914 107.256 8.66406 107.592 8.75391 107.885C8.84375 108.174 8.9668 108.418 9.12305 108.617C9.2793 108.816 9.45508 108.967 9.65039 109.068C9.84961 109.17 10.0566 109.221 10.2715 109.221C10.5215 109.221 10.7441 109.174 10.9395 109.08C11.1348 108.982 11.2988 108.848 11.4316 108.676C11.5684 108.5 11.6719 108.293 11.7422 108.055C11.8125 107.816 11.8477 107.555 11.8477 107.27C11.8477 107.016 11.8164 106.771 11.7539 106.537C11.6914 106.299 11.5957 106.088 11.4668 105.904C11.3379 105.717 11.1758 105.57 10.9805 105.465C10.7891 105.355 10.5605 105.301 10.2949 105.301C9.99414 105.301 9.71289 105.375 9.45117 105.523C9.19336 105.668 8.98047 105.859 8.8125 106.098C8.64844 106.332 8.55469 106.588 8.53125 106.865L7.95703 106.859C8.01172 106.422 8.11328 106.049 8.26172 105.74C8.41406 105.428 8.60156 105.174 8.82422 104.979C9.05078 104.779 9.30273 104.635 9.58008 104.545C9.86133 104.451 10.1582 104.404 10.4707 104.404C10.8965 104.404 11.2637 104.484 11.5723 104.645C11.8809 104.805 12.1348 105.02 12.334 105.289C12.5332 105.555 12.6797 105.855 12.7734 106.191C12.8711 106.523 12.9199 106.865 12.9199 107.217C12.9199 107.619 12.8633 107.996 12.75 108.348C12.6367 108.699 12.4668 109.008 12.2402 109.273C12.0176 109.539 11.7422 109.746 11.4141 109.895C11.0859 110.043 10.7051 110.117 10.2715 110.117C9.81055 110.117 9.4082 110.023 9.06445 109.836C8.7207 109.645 8.43555 109.391 8.20898 109.074C7.98242 108.758 7.8125 108.406 7.69922 108.02C7.58594 107.633 7.5293 107.24 7.5293 106.842V106.332C7.5293 105.73 7.58984 105.141 7.71094 104.562C7.83203 103.984 8.04102 103.461 8.33789 102.992C8.63867 102.523 9.05469 102.15 9.58594 101.873C10.1172 101.596 10.7949 101.457 11.6191 101.457ZM19.5879 107.691C19.5879 108.211 19.4668 108.652 19.2246 109.016C18.9863 109.375 18.6621 109.648 18.252 109.836C17.8457 110.023 17.3867 110.117 16.875 110.117C16.3633 110.117 15.9023 110.023 15.4922 109.836C15.082 109.648 14.7578 109.375 14.5195 109.016C14.2812 108.652 14.1621 108.211 14.1621 107.691C14.1621 107.352 14.2266 107.041 14.3555 106.76C14.4883 106.475 14.6738 106.227 14.9121 106.016C15.1543 105.805 15.4395 105.643 15.7676 105.529C16.0996 105.412 16.4648 105.354 16.8633 105.354C17.3867 105.354 17.8535 105.455 18.2637 105.658C18.6738 105.857 18.9961 106.133 19.2305 106.484C19.4688 106.836 19.5879 107.238 19.5879 107.691ZM18.498 107.668C18.498 107.352 18.4297 107.072 18.293 106.83C18.1562 106.584 17.9648 106.393 17.7188 106.256C17.4727 106.119 17.1875 106.051 16.8633 106.051C16.5312 106.051 16.2441 106.119 16.002 106.256C15.7637 106.393 15.5781 106.584 15.4453 106.83C15.3125 107.072 15.2461 107.352 15.2461 107.668C15.2461 107.996 15.3105 108.277 15.4395 108.512C15.5723 108.742 15.7598 108.92 16.002 109.045C16.248 109.166 16.5391 109.227 16.875 109.227C17.2109 109.227 17.5 109.166 17.7422 109.045C17.9844 108.92 18.1699 108.742 18.2988 108.512C18.4316 108.277 18.498 107.996 18.498 107.668ZM19.3887 103.689C19.3887 104.104 19.2793 104.477 19.0605 104.809C18.8418 105.141 18.543 105.402 18.1641 105.594C17.7852 105.785 17.3555 105.881 16.875 105.881C16.3867 105.881 15.9512 105.785 15.5684 105.594C15.1895 105.402 14.8926 105.141 14.6777 104.809C14.4629 104.477 14.3555 104.104 14.3555 103.689C14.3555 103.193 14.4629 102.771 14.6777 102.424C14.8965 102.076 15.1953 101.811 15.5742 101.627C15.9531 101.443 16.3848 101.352 16.8691 101.352C17.3574 101.352 17.791 101.443 18.1699 101.627C18.5488 101.811 18.8457 102.076 19.0605 102.424C19.2793 102.771 19.3887 103.193 19.3887 103.689ZM18.3047 103.707C18.3047 103.422 18.2441 103.17 18.123 102.951C18.002 102.732 17.834 102.561 17.6191 102.436C17.4043 102.307 17.1543 102.242 16.8691 102.242C16.584 102.242 16.334 102.303 16.1191 102.424C15.9082 102.541 15.7422 102.709 15.6211 102.928C15.5039 103.146 15.4453 103.406 15.4453 103.707C15.4453 104 15.5039 104.256 15.6211 104.475C15.7422 104.693 15.9102 104.863 16.125 104.984C16.3398 105.105 16.5898 105.166 16.875 105.166C17.1602 105.166 17.4082 105.105 17.6191 104.984C17.834 104.863 18.002 104.693 18.123 104.475C18.2441 104.256 18.3047 104 18.3047 103.707Z" fill="#BABABA"/>
<path d="M6.22266 149.469V150.078L2.68945 158H1.54688L5.07422 150.359H0.457031V149.469H6.22266ZM11.6191 149.457H11.7129V150.377H11.6191C11.0449 150.377 10.5645 150.471 10.1777 150.658C9.79102 150.842 9.48438 151.09 9.25781 151.402C9.03125 151.711 8.86719 152.059 8.76562 152.445C8.66797 152.832 8.61914 153.225 8.61914 153.623V154.877C8.61914 155.256 8.66406 155.592 8.75391 155.885C8.84375 156.174 8.9668 156.418 9.12305 156.617C9.2793 156.816 9.45508 156.967 9.65039 157.068C9.84961 157.17 10.0566 157.221 10.2715 157.221C10.5215 157.221 10.7441 157.174 10.9395 157.08C11.1348 156.982 11.2988 156.848 11.4316 156.676C11.5684 156.5 11.6719 156.293 11.7422 156.055C11.8125 155.816 11.8477 155.555 11.8477 155.27C11.8477 155.016 11.8164 154.771 11.7539 154.537C11.6914 154.299 11.5957 154.088 11.4668 153.904C11.3379 153.717 11.1758 153.57 10.9805 153.465C10.7891 153.355 10.5605 153.301 10.2949 153.301C9.99414 153.301 9.71289 153.375 9.45117 153.523C9.19336 153.668 8.98047 153.859 8.8125 154.098C8.64844 154.332 8.55469 154.588 8.53125 154.865L7.95703 154.859C8.01172 154.422 8.11328 154.049 8.26172 153.74C8.41406 153.428 8.60156 153.174 8.82422 152.979C9.05078 152.779 9.30273 152.635 9.58008 152.545C9.86133 152.451 10.1582 152.404 10.4707 152.404C10.8965 152.404 11.2637 152.484 11.5723 152.645C11.8809 152.805 12.1348 153.02 12.334 153.289C12.5332 153.555 12.6797 153.855 12.7734 154.191C12.8711 154.523 12.9199 154.865 12.9199 155.217C12.9199 155.619 12.8633 155.996 12.75 156.348C12.6367 156.699 12.4668 157.008 12.2402 157.273C12.0176 157.539 11.7422 157.746 11.4141 157.895C11.0859 158.043 10.7051 158.117 10.2715 158.117C9.81055 158.117 9.4082 158.023 9.06445 157.836C8.7207 157.645 8.43555 157.391 8.20898 157.074C7.98242 156.758 7.8125 156.406 7.69922 156.02C7.58594 155.633 7.5293 155.24 7.5293 154.842V154.332C7.5293 153.73 7.58984 153.141 7.71094 152.562C7.83203 151.984 8.04102 151.461 8.33789 150.992C8.63867 150.523 9.05469 150.15 9.58594 149.873C10.1172 149.596 10.7949 149.457 11.6191 149.457ZM18.3691 149.457H18.4629V150.377H18.3691C17.7949 150.377 17.3145 150.471 16.9277 150.658C16.541 150.842 16.2344 151.09 16.0078 151.402C15.7812 151.711 15.6172 152.059 15.5156 152.445C15.418 152.832 15.3691 153.225 15.3691 153.623V154.877C15.3691 155.256 15.4141 155.592 15.5039 155.885C15.5938 156.174 15.7168 156.418 15.873 156.617C16.0293 156.816 16.2051 156.967 16.4004 157.068C16.5996 157.17 16.8066 157.221 17.0215 157.221C17.2715 157.221 17.4941 157.174 17.6895 157.08C17.8848 156.982 18.0488 156.848 18.1816 156.676C18.3184 156.5 18.4219 156.293 18.4922 156.055C18.5625 155.816 18.5977 155.555 18.5977 155.27C18.5977 155.016 18.5664 154.771 18.5039 154.537C18.4414 154.299 18.3457 154.088 18.2168 153.904C18.0879 153.717 17.9258 153.57 17.7305 153.465C17.5391 153.355 17.3105 153.301 17.0449 153.301C16.7441 153.301 16.4629 153.375 16.2012 153.523C15.9434 153.668 15.7305 153.859 15.5625 154.098C15.3984 154.332 15.3047 154.588 15.2812 154.865L14.707 154.859C14.7617 154.422 14.8633 154.049 15.0117 153.74C15.1641 153.428 15.3516 153.174 15.5742 152.979C15.8008 152.779 16.0527 152.635 16.3301 152.545C16.6113 152.451 16.9082 152.404 17.2207 152.404C17.6465 152.404 18.0137 152.484 18.3223 152.645C18.6309 152.805 18.8848 153.02 19.084 153.289C19.2832 153.555 19.4297 153.855 19.5234 154.191C19.6211 154.523 19.6699 154.865 19.6699 155.217C19.6699 155.619 19.6133 155.996 19.5 156.348C19.3867 156.699 19.2168 157.008 18.9902 157.273C18.7676 157.539 18.4922 157.746 18.1641 157.895C17.8359 158.043 17.4551 158.117 17.0215 158.117C16.5605 158.117 16.1582 158.023 15.8145 157.836C15.4707 157.645 15.1855 157.391 14.959 157.074C14.7324 156.758 14.5625 156.406 14.4492 156.02C14.3359 155.633 14.2793 155.24 14.2793 154.842V154.332C14.2793 153.73 14.3398 153.141 14.4609 152.562C14.582 151.984 14.791 151.461 15.0879 150.992C15.3887 150.523 15.8047 150.15 16.3359 149.873C16.8672 149.596 17.5449 149.457 18.3691 149.457Z" fill="#BABABA"/>
<path d="M6.22266 197.469V198.078L2.68945 206H1.54688L5.07422 198.359H0.457031V197.469H6.22266ZM11.6191 197.457H11.7129V198.377H11.6191C11.0449 198.377 10.5645 198.471 10.1777 198.658C9.79102 198.842 9.48438 199.09 9.25781 199.402C9.03125 199.711 8.86719 200.059 8.76562 200.445C8.66797 200.832 8.61914 201.225 8.61914 201.623V202.877C8.61914 203.256 8.66406 203.592 8.75391 203.885C8.84375 204.174 8.9668 204.418 9.12305 204.617C9.2793 204.816 9.45508 204.967 9.65039 205.068C9.84961 205.17 10.0566 205.221 10.2715 205.221C10.5215 205.221 10.7441 205.174 10.9395 205.08C11.1348 204.982 11.2988 204.848 11.4316 204.676C11.5684 204.5 11.6719 204.293 11.7422 204.055C11.8125 203.816 11.8477 203.555 11.8477 203.27C11.8477 203.016 11.8164 202.771 11.7539 202.537C11.6914 202.299 11.5957 202.088 11.4668 201.904C11.3379 201.717 11.1758 201.57 10.9805 201.465C10.7891 201.355 10.5605 201.301 10.2949 201.301C9.99414 201.301 9.71289 201.375 9.45117 201.523C9.19336 201.668 8.98047 201.859 8.8125 202.098C8.64844 202.332 8.55469 202.588 8.53125 202.865L7.95703 202.859C8.01172 202.422 8.11328 202.049 8.26172 201.74C8.41406 201.428 8.60156 201.174 8.82422 200.979C9.05078 200.779 9.30273 200.635 9.58008 200.545C9.86133 200.451 10.1582 200.404 10.4707 200.404C10.8965 200.404 11.2637 200.484 11.5723 200.645C11.8809 200.805 12.1348 201.02 12.334 201.289C12.5332 201.555 12.6797 201.855 12.7734 202.191C12.8711 202.523 12.9199 202.865 12.9199 203.217C12.9199 203.619 12.8633 203.996 12.75 204.348C12.6367 204.699 12.4668 205.008 12.2402 205.273C12.0176 205.539 11.7422 205.746 11.4141 205.895C11.0859 206.043 10.7051 206.117 10.2715 206.117C9.81055 206.117 9.4082 206.023 9.06445 205.836C8.7207 205.645 8.43555 205.391 8.20898 205.074C7.98242 204.758 7.8125 204.406 7.69922 204.02C7.58594 203.633 7.5293 203.24 7.5293 202.842V202.332C7.5293 201.73 7.58984 201.141 7.71094 200.562C7.83203 199.984 8.04102 199.461 8.33789 198.992C8.63867 198.523 9.05469 198.15 9.58594 197.873C10.1172 197.596 10.7949 197.457 11.6191 197.457ZM19.9746 203.129V204.02H13.8105V203.381L17.6309 197.469H18.5156L17.5664 199.18L15.041 203.129H19.9746ZM18.7852 197.469V206H17.7012V197.469H18.7852Z" fill="#BABABA"/>
<path d="M6.22266 245.469V246.078L2.68945 254H1.54688L5.07422 246.359H0.457031V245.469H6.22266ZM11.6191 245.457H11.7129V246.377H11.6191C11.0449 246.377 10.5645 246.471 10.1777 246.658C9.79102 246.842 9.48438 247.09 9.25781 247.402C9.03125 247.711 8.86719 248.059 8.76562 248.445C8.66797 248.832 8.61914 249.225 8.61914 249.623V250.877C8.61914 251.256 8.66406 251.592 8.75391 251.885C8.84375 252.174 8.9668 252.418 9.12305 252.617C9.2793 252.816 9.45508 252.967 9.65039 253.068C9.84961 253.17 10.0566 253.221 10.2715 253.221C10.5215 253.221 10.7441 253.174 10.9395 253.08C11.1348 252.982 11.2988 252.848 11.4316 252.676C11.5684 252.5 11.6719 252.293 11.7422 252.055C11.8125 251.816 11.8477 251.555 11.8477 251.27C11.8477 251.016 11.8164 250.771 11.7539 250.537C11.6914 250.299 11.5957 250.088 11.4668 249.904C11.3379 249.717 11.1758 249.57 10.9805 249.465C10.7891 249.355 10.5605 249.301 10.2949 249.301C9.99414 249.301 9.71289 249.375 9.45117 249.523C9.19336 249.668 8.98047 249.859 8.8125 250.098C8.64844 250.332 8.55469 250.588 8.53125 250.865L7.95703 250.859C8.01172 250.422 8.11328 250.049 8.26172 249.74C8.41406 249.428 8.60156 249.174 8.82422 248.979C9.05078 248.779 9.30273 248.635 9.58008 248.545C9.86133 248.451 10.1582 248.404 10.4707 248.404C10.8965 248.404 11.2637 248.484 11.5723 248.645C11.8809 248.805 12.1348 249.02 12.334 249.289C12.5332 249.555 12.6797 249.855 12.7734 250.191C12.8711 250.523 12.9199 250.865 12.9199 251.217C12.9199 251.619 12.8633 251.996 12.75 252.348C12.6367 252.699 12.4668 253.008 12.2402 253.273C12.0176 253.539 11.7422 253.746 11.4141 253.895C11.0859 254.043 10.7051 254.117 10.2715 254.117C9.81055 254.117 9.4082 254.023 9.06445 253.836C8.7207 253.645 8.43555 253.391 8.20898 253.074C7.98242 252.758 7.8125 252.406 7.69922 252.02C7.58594 251.633 7.5293 251.24 7.5293 250.842V250.332C7.5293 249.73 7.58984 249.141 7.71094 248.562C7.83203 247.984 8.04102 247.461 8.33789 246.992C8.63867 246.523 9.05469 246.15 9.58594 245.873C10.1172 245.596 10.7949 245.457 11.6191 245.457ZM19.7988 253.109V254H14.2148V253.221L17.0098 250.109C17.3535 249.727 17.6191 249.402 17.8066 249.137C17.998 248.867 18.1309 248.627 18.2051 248.416C18.2832 248.201 18.3223 247.982 18.3223 247.76C18.3223 247.479 18.2637 247.225 18.1465 246.998C18.0332 246.768 17.8652 246.584 17.6426 246.447C17.4199 246.311 17.1504 246.242 16.834 246.242C16.4551 246.242 16.1387 246.316 15.8848 246.465C15.6348 246.609 15.4473 246.812 15.3223 247.074C15.1973 247.336 15.1348 247.637 15.1348 247.977H14.0508C14.0508 247.496 14.1562 247.057 14.3672 246.658C14.5781 246.26 14.8906 245.943 15.3047 245.709C15.7188 245.471 16.2285 245.352 16.834 245.352C17.373 245.352 17.834 245.447 18.2168 245.639C18.5996 245.826 18.8926 246.092 19.0957 246.436C19.3027 246.775 19.4062 247.174 19.4062 247.631C19.4062 247.881 19.3633 248.135 19.2773 248.393C19.1953 248.646 19.0801 248.9 18.9316 249.154C18.7871 249.408 18.6172 249.658 18.4219 249.904C18.2305 250.15 18.0254 250.393 17.8066 250.631L15.5215 253.109H19.7988Z" fill="#BABABA"/>
<path d="M6.22266 293.469V294.078L2.68945 302H1.54688L5.07422 294.359H0.457031V293.469H6.22266ZM11.6191 293.457H11.7129V294.377H11.6191C11.0449 294.377 10.5645 294.471 10.1777 294.658C9.79102 294.842 9.48438 295.09 9.25781 295.402C9.03125 295.711 8.86719 296.059 8.76562 296.445C8.66797 296.832 8.61914 297.225 8.61914 297.623V298.877C8.61914 299.256 8.66406 299.592 8.75391 299.885C8.84375 300.174 8.9668 300.418 9.12305 300.617C9.2793 300.816 9.45508 300.967 9.65039 301.068C9.84961 301.17 10.0566 301.221 10.2715 301.221C10.5215 301.221 10.7441 301.174 10.9395 301.08C11.1348 300.982 11.2988 300.848 11.4316 300.676C11.5684 300.5 11.6719 300.293 11.7422 300.055C11.8125 299.816 11.8477 299.555 11.8477 299.27C11.8477 299.016 11.8164 298.771 11.7539 298.537C11.6914 298.299 11.5957 298.088 11.4668 297.904C11.3379 297.717 11.1758 297.57 10.9805 297.465C10.7891 297.355 10.5605 297.301 10.2949 297.301C9.99414 297.301 9.71289 297.375 9.45117 297.523C9.19336 297.668 8.98047 297.859 8.8125 298.098C8.64844 298.332 8.55469 298.588 8.53125 298.865L7.95703 298.859C8.01172 298.422 8.11328 298.049 8.26172 297.74C8.41406 297.428 8.60156 297.174 8.82422 296.979C9.05078 296.779 9.30273 296.635 9.58008 296.545C9.86133 296.451 10.1582 296.404 10.4707 296.404C10.8965 296.404 11.2637 296.484 11.5723 296.645C11.8809 296.805 12.1348 297.02 12.334 297.289C12.5332 297.555 12.6797 297.855 12.7734 298.191C12.8711 298.523 12.9199 298.865 12.9199 299.217C12.9199 299.619 12.8633 299.996 12.75 300.348C12.6367 300.699 12.4668 301.008 12.2402 301.273C12.0176 301.539 11.7422 301.746 11.4141 301.895C11.0859 302.043 10.7051 302.117 10.2715 302.117C9.81055 302.117 9.4082 302.023 9.06445 301.836C8.7207 301.645 8.43555 301.391 8.20898 301.074C7.98242 300.758 7.8125 300.406 7.69922 300.02C7.58594 299.633 7.5293 299.24 7.5293 298.842V298.332C7.5293 297.73 7.58984 297.141 7.71094 296.562C7.83203 295.984 8.04102 295.461 8.33789 294.992C8.63867 294.523 9.05469 294.15 9.58594 293.873C10.1172 293.596 10.7949 293.457 11.6191 293.457ZM19.5645 297.055V298.355C19.5645 299.055 19.502 299.645 19.377 300.125C19.252 300.605 19.0723 300.992 18.8379 301.285C18.6035 301.578 18.3203 301.791 17.9883 301.924C17.6602 302.053 17.2891 302.117 16.875 302.117C16.5469 302.117 16.2441 302.076 15.9668 301.994C15.6895 301.912 15.4395 301.781 15.2168 301.602C14.998 301.418 14.8105 301.18 14.6543 300.887C14.498 300.594 14.3789 300.238 14.2969 299.82C14.2148 299.402 14.1738 298.914 14.1738 298.355V297.055C14.1738 296.355 14.2363 295.77 14.3613 295.297C14.4902 294.824 14.6719 294.445 14.9062 294.16C15.1406 293.871 15.4219 293.664 15.75 293.539C16.082 293.414 16.4531 293.352 16.8633 293.352C17.1953 293.352 17.5 293.393 17.7773 293.475C18.0586 293.553 18.3086 293.68 18.5273 293.855C18.7461 294.027 18.9316 294.258 19.084 294.547C19.2402 294.832 19.3594 295.182 19.4414 295.596C19.5234 296.01 19.5645 296.496 19.5645 297.055ZM18.4746 298.531V296.873C18.4746 296.49 18.4512 296.154 18.4043 295.865C18.3613 295.572 18.2969 295.322 18.2109 295.115C18.125 294.908 18.0156 294.74 17.8828 294.611C17.7539 294.482 17.6035 294.389 17.4316 294.33C17.2637 294.268 17.0742 294.236 16.8633 294.236C16.6055 294.236 16.377 294.285 16.1777 294.383C15.9785 294.477 15.8105 294.627 15.6738 294.834C15.541 295.041 15.4395 295.312 15.3691 295.648C15.2988 295.984 15.2637 296.393 15.2637 296.873V298.531C15.2637 298.914 15.2852 299.252 15.3281 299.545C15.375 299.838 15.4434 300.092 15.5332 300.307C15.623 300.518 15.7324 300.691 15.8613 300.828C15.9902 300.965 16.1387 301.066 16.3066 301.133C16.4785 301.195 16.668 301.227 16.875 301.227C17.1406 301.227 17.373 301.176 17.5723 301.074C17.7715 300.973 17.9375 300.814 18.0703 300.6C18.207 300.381 18.3086 300.102 18.375 299.762C18.4414 299.418 18.4746 299.008 18.4746 298.531Z" fill="#BABABA"/>
<path d="M6.22266 341.469V342.078L2.68945 350H1.54688L5.07422 342.359H0.457031V341.469H6.22266ZM8.83008 345.939L7.96289 345.717L8.39062 341.469H12.7676V342.471H9.31055L9.05273 344.791C9.20898 344.701 9.40625 344.617 9.64453 344.539C9.88672 344.461 10.1641 344.422 10.4766 344.422C10.8711 344.422 11.2246 344.49 11.5371 344.627C11.8496 344.76 12.1152 344.951 12.334 345.201C12.5566 345.451 12.7266 345.752 12.8438 346.104C12.9609 346.455 13.0195 346.848 13.0195 347.281C13.0195 347.691 12.9629 348.068 12.8496 348.412C12.7402 348.756 12.5742 349.057 12.3516 349.314C12.1289 349.568 11.8477 349.766 11.5078 349.906C11.1719 350.047 10.7754 350.117 10.3184 350.117C9.97461 350.117 9.64844 350.07 9.33984 349.977C9.03516 349.879 8.76172 349.732 8.51953 349.537C8.28125 349.338 8.08594 349.092 7.93359 348.799C7.78516 348.502 7.69141 348.154 7.65234 347.756H8.68359C8.73047 348.076 8.82422 348.346 8.96484 348.564C9.10547 348.783 9.28906 348.949 9.51562 349.062C9.74609 349.172 10.0137 349.227 10.3184 349.227C10.5762 349.227 10.8047 349.182 11.0039 349.092C11.2031 349.002 11.3711 348.873 11.5078 348.705C11.6445 348.537 11.748 348.334 11.8184 348.096C11.8926 347.857 11.9297 347.59 11.9297 347.293C11.9297 347.023 11.8926 346.773 11.8184 346.543C11.7441 346.312 11.6328 346.111 11.4844 345.939C11.3398 345.768 11.1621 345.635 10.9512 345.541C10.7402 345.443 10.498 345.395 10.2246 345.395C9.86133 345.395 9.58594 345.443 9.39844 345.541C9.21484 345.639 9.02539 345.771 8.83008 345.939ZM19.5879 347.691C19.5879 348.211 19.4668 348.652 19.2246 349.016C18.9863 349.375 18.6621 349.648 18.252 349.836C17.8457 350.023 17.3867 350.117 16.875 350.117C16.3633 350.117 15.9023 350.023 15.4922 349.836C15.082 349.648 14.7578 349.375 14.5195 349.016C14.2812 348.652 14.1621 348.211 14.1621 347.691C14.1621 347.352 14.2266 347.041 14.3555 346.76C14.4883 346.475 14.6738 346.227 14.9121 346.016C15.1543 345.805 15.4395 345.643 15.7676 345.529C16.0996 345.412 16.4648 345.354 16.8633 345.354C17.3867 345.354 17.8535 345.455 18.2637 345.658C18.6738 345.857 18.9961 346.133 19.2305 346.484C19.4688 346.836 19.5879 347.238 19.5879 347.691ZM18.498 347.668C18.498 347.352 18.4297 347.072 18.293 346.83C18.1562 346.584 17.9648 346.393 17.7188 346.256C17.4727 346.119 17.1875 346.051 16.8633 346.051C16.5312 346.051 16.2441 346.119 16.002 346.256C15.7637 346.393 15.5781 346.584 15.4453 346.83C15.3125 347.072 15.2461 347.352 15.2461 347.668C15.2461 347.996 15.3105 348.277 15.4395 348.512C15.5723 348.742 15.7598 348.92 16.002 349.045C16.248 349.166 16.5391 349.227 16.875 349.227C17.2109 349.227 17.5 349.166 17.7422 349.045C17.9844 348.92 18.1699 348.742 18.2988 348.512C18.4316 348.277 18.498 347.996 18.498 347.668ZM19.3887 343.689C19.3887 344.104 19.2793 344.477 19.0605 344.809C18.8418 345.141 18.543 345.402 18.1641 345.594C17.7852 345.785 17.3555 345.881 16.875 345.881C16.3867 345.881 15.9512 345.785 15.5684 345.594C15.1895 345.402 14.8926 345.141 14.6777 344.809C14.4629 344.477 14.3555 344.104 14.3555 343.689C14.3555 343.193 14.4629 342.771 14.6777 342.424C14.8965 342.076 15.1953 341.811 15.5742 341.627C15.9531 341.443 16.3848 341.352 16.8691 341.352C17.3574 341.352 17.791 341.443 18.1699 341.627C18.5488 341.811 18.8457 342.076 19.0605 342.424C19.2793 342.771 19.3887 343.193 19.3887 343.689ZM18.3047 343.707C18.3047 343.422 18.2441 343.17 18.123 342.951C18.002 342.732 17.834 342.561 17.6191 342.436C17.4043 342.307 17.1543 342.242 16.8691 342.242C16.584 342.242 16.334 342.303 16.1191 342.424C15.9082 342.541 15.7422 342.709 15.6211 342.928C15.5039 343.146 15.4453 343.406 15.4453 343.707C15.4453 344 15.5039 344.256 15.6211 344.475C15.7422 344.693 15.9102 344.863 16.125 344.984C16.3398 345.105 16.5898 345.166 16.875 345.166C17.1602 345.166 17.4082 345.105 17.6191 344.984C17.834 344.863 18.002 344.693 18.123 344.475C18.2441 344.256 18.3047 344 18.3047 343.707Z" fill="#BABABA"/>
<path d="M6.22266 389.469V390.078L2.68945 398H1.54688L5.07422 390.359H0.457031V389.469H6.22266ZM8.83008 393.939L7.96289 393.717L8.39062 389.469H12.7676V390.471H9.31055L9.05273 392.791C9.20898 392.701 9.40625 392.617 9.64453 392.539C9.88672 392.461 10.1641 392.422 10.4766 392.422C10.8711 392.422 11.2246 392.49 11.5371 392.627C11.8496 392.76 12.1152 392.951 12.334 393.201C12.5566 393.451 12.7266 393.752 12.8438 394.104C12.9609 394.455 13.0195 394.848 13.0195 395.281C13.0195 395.691 12.9629 396.068 12.8496 396.412C12.7402 396.756 12.5742 397.057 12.3516 397.314C12.1289 397.568 11.8477 397.766 11.5078 397.906C11.1719 398.047 10.7754 398.117 10.3184 398.117C9.97461 398.117 9.64844 398.07 9.33984 397.977C9.03516 397.879 8.76172 397.732 8.51953 397.537C8.28125 397.338 8.08594 397.092 7.93359 396.799C7.78516 396.502 7.69141 396.154 7.65234 395.756H8.68359C8.73047 396.076 8.82422 396.346 8.96484 396.564C9.10547 396.783 9.28906 396.949 9.51562 397.062C9.74609 397.172 10.0137 397.227 10.3184 397.227C10.5762 397.227 10.8047 397.182 11.0039 397.092C11.2031 397.002 11.3711 396.873 11.5078 396.705C11.6445 396.537 11.748 396.334 11.8184 396.096C11.8926 395.857 11.9297 395.59 11.9297 395.293C11.9297 395.023 11.8926 394.773 11.8184 394.543C11.7441 394.312 11.6328 394.111 11.4844 393.939C11.3398 393.768 11.1621 393.635 10.9512 393.541C10.7402 393.443 10.498 393.395 10.2246 393.395C9.86133 393.395 9.58594 393.443 9.39844 393.541C9.21484 393.639 9.02539 393.771 8.83008 393.939ZM18.3691 389.457H18.4629V390.377H18.3691C17.7949 390.377 17.3145 390.471 16.9277 390.658C16.541 390.842 16.2344 391.09 16.0078 391.402C15.7812 391.711 15.6172 392.059 15.5156 392.445C15.418 392.832 15.3691 393.225 15.3691 393.623V394.877C15.3691 395.256 15.4141 395.592 15.5039 395.885C15.5938 396.174 15.7168 396.418 15.873 396.617C16.0293 396.816 16.2051 396.967 16.4004 397.068C16.5996 397.17 16.8066 397.221 17.0215 397.221C17.2715 397.221 17.4941 397.174 17.6895 397.08C17.8848 396.982 18.0488 396.848 18.1816 396.676C18.3184 396.5 18.4219 396.293 18.4922 396.055C18.5625 395.816 18.5977 395.555 18.5977 395.27C18.5977 395.016 18.5664 394.771 18.5039 394.537C18.4414 394.299 18.3457 394.088 18.2168 393.904C18.0879 393.717 17.9258 393.57 17.7305 393.465C17.5391 393.355 17.3105 393.301 17.0449 393.301C16.7441 393.301 16.4629 393.375 16.2012 393.523C15.9434 393.668 15.7305 393.859 15.5625 394.098C15.3984 394.332 15.3047 394.588 15.2812 394.865L14.707 394.859C14.7617 394.422 14.8633 394.049 15.0117 393.74C15.1641 393.428 15.3516 393.174 15.5742 392.979C15.8008 392.779 16.0527 392.635 16.3301 392.545C16.6113 392.451 16.9082 392.404 17.2207 392.404C17.6465 392.404 18.0137 392.484 18.3223 392.645C18.6309 392.805 18.8848 393.02 19.084 393.289C19.2832 393.555 19.4297 393.855 19.5234 394.191C19.6211 394.523 19.6699 394.865 19.6699 395.217C19.6699 395.619 19.6133 395.996 19.5 396.348C19.3867 396.699 19.2168 397.008 18.9902 397.273C18.7676 397.539 18.4922 397.746 18.1641 397.895C17.8359 398.043 17.4551 398.117 17.0215 398.117C16.5605 398.117 16.1582 398.023 15.8145 397.836C15.4707 397.645 15.1855 397.391 14.959 397.074C14.7324 396.758 14.5625 396.406 14.4492 396.02C14.3359 395.633 14.2793 395.24 14.2793 394.842V394.332C14.2793 393.73 14.3398 393.141 14.4609 392.562C14.582 391.984 14.791 391.461 15.0879 390.992C15.3887 390.523 15.8047 390.15 16.3359 389.873C16.8672 389.596 17.5449 389.457 18.3691 389.457Z" fill="#BABABA"/>
<path d="M6.22266 437.469V438.078L2.68945 446H1.54688L5.07422 438.359H0.457031V437.469H6.22266ZM8.83008 441.939L7.96289 441.717L8.39062 437.469H12.7676V438.471H9.31055L9.05273 440.791C9.20898 440.701 9.40625 440.617 9.64453 440.539C9.88672 440.461 10.1641 440.422 10.4766 440.422C10.8711 440.422 11.2246 440.49 11.5371 440.627C11.8496 440.76 12.1152 440.951 12.334 441.201C12.5566 441.451 12.7266 441.752 12.8438 442.104C12.9609 442.455 13.0195 442.848 13.0195 443.281C13.0195 443.691 12.9629 444.068 12.8496 444.412C12.7402 444.756 12.5742 445.057 12.3516 445.314C12.1289 445.568 11.8477 445.766 11.5078 445.906C11.1719 446.047 10.7754 446.117 10.3184 446.117C9.97461 446.117 9.64844 446.07 9.33984 445.977C9.03516 445.879 8.76172 445.732 8.51953 445.537C8.28125 445.338 8.08594 445.092 7.93359 444.799C7.78516 444.502 7.69141 444.154 7.65234 443.756H8.68359C8.73047 444.076 8.82422 444.346 8.96484 444.564C9.10547 444.783 9.28906 444.949 9.51562 445.062C9.74609 445.172 10.0137 445.227 10.3184 445.227C10.5762 445.227 10.8047 445.182 11.0039 445.092C11.2031 445.002 11.3711 444.873 11.5078 444.705C11.6445 444.537 11.748 444.334 11.8184 444.096C11.8926 443.857 11.9297 443.59 11.9297 443.293C11.9297 443.023 11.8926 442.773 11.8184 442.543C11.7441 442.312 11.6328 442.111 11.4844 441.939C11.3398 441.768 11.1621 441.635 10.9512 441.541C10.7402 441.443 10.498 441.395 10.2246 441.395C9.86133 441.395 9.58594 441.443 9.39844 441.541C9.21484 441.639 9.02539 441.771 8.83008 441.939ZM19.9746 443.129V444.02H13.8105V443.381L17.6309 437.469H18.5156L17.5664 439.18L15.041 443.129H19.9746ZM18.7852 437.469V446H17.7012V437.469H18.7852Z" fill="#BABABA"/>
<path d="M6.22266 485.469V486.078L2.68945 494H1.54688L5.07422 486.359H0.457031V485.469H6.22266ZM8.83008 489.939L7.96289 489.717L8.39062 485.469H12.7676V486.471H9.31055L9.05273 488.791C9.20898 488.701 9.40625 488.617 9.64453 488.539C9.88672 488.461 10.1641 488.422 10.4766 488.422C10.8711 488.422 11.2246 488.49 11.5371 488.627C11.8496 488.76 12.1152 488.951 12.334 489.201C12.5566 489.451 12.7266 489.752 12.8438 490.104C12.9609 490.455 13.0195 490.848 13.0195 491.281C13.0195 491.691 12.9629 492.068 12.8496 492.412C12.7402 492.756 12.5742 493.057 12.3516 493.314C12.1289 493.568 11.8477 493.766 11.5078 493.906C11.1719 494.047 10.7754 494.117 10.3184 494.117C9.97461 494.117 9.64844 494.07 9.33984 493.977C9.03516 493.879 8.76172 493.732 8.51953 493.537C8.28125 493.338 8.08594 493.092 7.93359 492.799C7.78516 492.502 7.69141 492.154 7.65234 491.756H8.68359C8.73047 492.076 8.82422 492.346 8.96484 492.564C9.10547 492.783 9.28906 492.949 9.51562 493.062C9.74609 493.172 10.0137 493.227 10.3184 493.227C10.5762 493.227 10.8047 493.182 11.0039 493.092C11.2031 493.002 11.3711 492.873 11.5078 492.705C11.6445 492.537 11.748 492.334 11.8184 492.096C11.8926 491.857 11.9297 491.59 11.9297 491.293C11.9297 491.023 11.8926 490.773 11.8184 490.543C11.7441 490.312 11.6328 490.111 11.4844 489.939C11.3398 489.768 11.1621 489.635 10.9512 489.541C10.7402 489.443 10.498 489.395 10.2246 489.395C9.86133 489.395 9.58594 489.443 9.39844 489.541C9.21484 489.639 9.02539 489.771 8.83008 489.939ZM19.7988 493.109V494H14.2148V493.221L17.0098 490.109C17.3535 489.727 17.6191 489.402 17.8066 489.137C17.998 488.867 18.1309 488.627 18.2051 488.416C18.2832 488.201 18.3223 487.982 18.3223 487.76C18.3223 487.479 18.2637 487.225 18.1465 486.998C18.0332 486.768 17.8652 486.584 17.6426 486.447C17.4199 486.311 17.1504 486.242 16.834 486.242C16.4551 486.242 16.1387 486.316 15.8848 486.465C15.6348 486.609 15.4473 486.812 15.3223 487.074C15.1973 487.336 15.1348 487.637 15.1348 487.977H14.0508C14.0508 487.496 14.1562 487.057 14.3672 486.658C14.5781 486.26 14.8906 485.943 15.3047 485.709C15.7188 485.471 16.2285 485.352 16.834 485.352C17.373 485.352 17.834 485.447 18.2168 485.639C18.5996 485.826 18.8926 486.092 19.0957 486.436C19.3027 486.775 19.4062 487.174 19.4062 487.631C19.4062 487.881 19.3633 488.135 19.2773 488.393C19.1953 488.646 19.0801 488.9 18.9316 489.154C18.7871 489.408 18.6172 489.658 18.4219 489.904C18.2305 490.15 18.0254 490.393 17.8066 490.631L15.5215 493.109H19.7988Z" fill="#BABABA"/>
<path d="M6.22266 533.469V534.078L2.68945 542H1.54688L5.07422 534.359H0.457031V533.469H6.22266ZM8.83008 537.939L7.96289 537.717L8.39062 533.469H12.7676V534.471H9.31055L9.05273 536.791C9.20898 536.701 9.40625 536.617 9.64453 536.539C9.88672 536.461 10.1641 536.422 10.4766 536.422C10.8711 536.422 11.2246 536.49 11.5371 536.627C11.8496 536.76 12.1152 536.951 12.334 537.201C12.5566 537.451 12.7266 537.752 12.8438 538.104C12.9609 538.455 13.0195 538.848 13.0195 539.281C13.0195 539.691 12.9629 540.068 12.8496 540.412C12.7402 540.756 12.5742 541.057 12.3516 541.314C12.1289 541.568 11.8477 541.766 11.5078 541.906C11.1719 542.047 10.7754 542.117 10.3184 542.117C9.97461 542.117 9.64844 542.07 9.33984 541.977C9.03516 541.879 8.76172 541.732 8.51953 541.537C8.28125 541.338 8.08594 541.092 7.93359 540.799C7.78516 540.502 7.69141 540.154 7.65234 539.756H8.68359C8.73047 540.076 8.82422 540.346 8.96484 540.564C9.10547 540.783 9.28906 540.949 9.51562 541.062C9.74609 541.172 10.0137 541.227 10.3184 541.227C10.5762 541.227 10.8047 541.182 11.0039 541.092C11.2031 541.002 11.3711 540.873 11.5078 540.705C11.6445 540.537 11.748 540.334 11.8184 540.096C11.8926 539.857 11.9297 539.59 11.9297 539.293C11.9297 539.023 11.8926 538.773 11.8184 538.543C11.7441 538.312 11.6328 538.111 11.4844 537.939C11.3398 537.768 11.1621 537.635 10.9512 537.541C10.7402 537.443 10.498 537.395 10.2246 537.395C9.86133 537.395 9.58594 537.443 9.39844 537.541C9.21484 537.639 9.02539 537.771 8.83008 537.939ZM19.5645 537.055V538.355C19.5645 539.055 19.502 539.645 19.377 540.125C19.252 540.605 19.0723 540.992 18.8379 541.285C18.6035 541.578 18.3203 541.791 17.9883 541.924C17.6602 542.053 17.2891 542.117 16.875 542.117C16.5469 542.117 16.2441 542.076 15.9668 541.994C15.6895 541.912 15.4395 541.781 15.2168 541.602C14.998 541.418 14.8105 541.18 14.6543 540.887C14.498 540.594 14.3789 540.238 14.2969 539.82C14.2148 539.402 14.1738 538.914 14.1738 538.355V537.055C14.1738 536.355 14.2363 535.77 14.3613 535.297C14.4902 534.824 14.6719 534.445 14.9062 534.16C15.1406 533.871 15.4219 533.664 15.75 533.539C16.082 533.414 16.4531 533.352 16.8633 533.352C17.1953 533.352 17.5 533.393 17.7773 533.475C18.0586 533.553 18.3086 533.68 18.5273 533.855C18.7461 534.027 18.9316 534.258 19.084 534.547C19.2402 534.832 19.3594 535.182 19.4414 535.596C19.5234 536.01 19.5645 536.496 19.5645 537.055ZM18.4746 538.531V536.873C18.4746 536.49 18.4512 536.154 18.4043 535.865C18.3613 535.572 18.2969 535.322 18.2109 535.115C18.125 534.908 18.0156 534.74 17.8828 534.611C17.7539 534.482 17.6035 534.389 17.4316 534.33C17.2637 534.268 17.0742 534.236 16.8633 534.236C16.6055 534.236 16.377 534.285 16.1777 534.383C15.9785 534.477 15.8105 534.627 15.6738 534.834C15.541 535.041 15.4395 535.312 15.3691 535.648C15.2988 535.984 15.2637 536.393 15.2637 536.873V538.531C15.2637 538.914 15.2852 539.252 15.3281 539.545C15.375 539.838 15.4434 540.092 15.5332 540.307C15.623 540.518 15.7324 540.691 15.8613 540.828C15.9902 540.965 16.1387 541.066 16.3066 541.133C16.4785 541.195 16.668 541.227 16.875 541.227C17.1406 541.227 17.373 541.176 17.5723 541.074C17.7715 540.973 17.9375 540.814 18.0703 540.6C18.207 540.381 18.3086 540.102 18.375 539.762C18.4414 539.418 18.4746 539.008 18.4746 538.531Z" fill="#BABABA"/>
<path d="M32 308H68L97 295L236 394L379 248L514 300L657 437L797 345L936 394L1004 442" stroke="#FFBF3C" stroke-width="2"/>
<path d="M32 276.948H68L97 262.876L236 370.041L379 212L514 268.289L657 416.588L797 317L936 370.041L1004 422" stroke="#49A4EF" stroke-width="2"/>
<path d="M32 226.948H68L97 212.876L236 320.041L379 162L514 218.289L657 366.588L797 267L936 320.041L1004 372" stroke="#7AFFBF" stroke-width="2"/>
<defs>
<clipPath id="clip0_378_53462">
<rect width="974" height="527" fill="white" transform="translate(30 9)"/>
</clipPath>
</defs>
</svg>
